<?xml version="1.0" encoding="UTF-8"?><svg xmlns="http://www.w3.org/2000/svg" viewBox="0 0 292.42 182.09"><defs><style>.d{fill:#58b6a3;}.e{fill:#79ad9b;}.f{fill:#42857b;}</style></defs><g id="a"/><g id="b"><g id="c"><g><path class="d" d="M200.18,142.51c-.09,.03-.17,.06-.24,.08-.56,.16-1.11,.31-1.68,.46,.64-.18,1.29-.36,1.92-.53Z"/><path class="d" d="M201.64,142.06c-.32,.11-.63,.2-.95,.3-.18,.06-.35,.1-.51,.14,.48-.16,.97-.29,1.46-.45Z"/><path class="d" d="M231.42,126.72s-.06,.08-.08,.12c-1.11,.82-2.25,1.65-3.44,2.46-.02,.03-.06,.03-.09,.04,1.22-.84,2.42-1.72,3.6-2.62Z"/><path class="f" d="M83.13,32.92c-1.21,1.22-2.38,2.46-3.53,3.73,.88-1.06,2.08-2.33,3.53-3.73Z"/><path class="f" d="M57.34,71.74h.01c-.01,.08-.02,.17-.03,.24,0-.08,.01-.17,.02-.24Z"/><path class="f" d="M57.64,70.06c.12-.48,.27-.98,.44-1.49-.04,.17-.08,.33-.12,.51h0c-.19,.55-.33,1.1-.44,1.63h-.01c.03-.21,.08-.43,.13-.65Z"/><path class="d" d="M220.42,141.72c-.48,.32-.94,.64-1.41,.96-1.2,.7-2.36,1.34-3.49,1.95-.87,.45-1.71,.89-2.53,1.3,2.57-1.32,5.04-2.73,7.43-4.21Z"/><path class="f" d="M270.86,79.32c-.42,1.53-.88,3.04-1.38,4.51,0,0,0,.02-.01,.06-.01,.04-.03,.11-.06,.19-.63,1.84-1.31,3.65-2.05,5.41,0,0,0,.01-.01,.01,0,.01-.01,.03-.02,.04-1.86,4.47-4.09,8.7-6.6,12.74-.43,.69-.86,1.35-1.29,2.02,.39-.57,.71-1.03,.95-1.37-4.42,6.97-10.89,15.39-20.2,24.34-.3,.29-.6,.58-.9,.86-2.05,1.97-4.1,3.79-6.14,5.47-.4,.33-.81,.65-1.21,.98-.4,.33-.81,.64-1.21,.95-.65,.51-1.31,1-1.95,1.47-.07,.06-.13,.1-.21,.16-.58,.42-1.15,.83-1.73,1.24-21.43,15.08-39.31,15.09-39.36,15.09,.69-.12,1.36-.26,2.05-.4,.03-.01,.07-.01,.1-.02,4.19-.89,8.2-2.11,12.02-3.59,.09-.01,.17-.04,.25-.1,1.53-.58,3.04-1.21,4.5-1.9,29.98-13.71,46.97-42.45,48.91-45.85,0-.02,.01-.03,.02-.04,.1-.14,.18-.27,.24-.38,.07-.11,.12-.21,.17-.29-2.16,2.24-4.93,4.08-7.99,5.61-2.16,.88-4.29,1.81-6.43,2.69h-.01c-10.69,3.7-21.88,4.46-21.88,4.46,25.96-12.36,40.1-32.18,36.43-61.11-3.24-25.55-17.41-42-41.28-48.6-.09-.03-.18-.06-.28-.08-1.39-.42-2.87-.76-4.27-1.03-3-.58-5.53-.83-5.53-.83V.61s.02,0,.06-.01c.03,0,.07-.01,.12-.02,1.54-.22,13.09-1.76,24.02,1.37,.07,.01,.14,.03,.21,.07,1.04,.31,2.06,.67,3.08,1.04,.12,.03,.23,.09,.34,.13h.01c4.06,1.53,7.99,3.49,11.85,5.77,24.05,14.15,34.41,41.84,26.63,70.37Z"/><path class="d" d="M254.75,102.39c-.53,.82-2.26,3.43-5.2,6.98h0c-.41,.51-.85,1.03-1.33,1.57,.41-.51,.81-1,1.19-1.47,2.47-3.12,4.29-5.61,5.34-7.08Z"/><path class="f" d="M214.33,3.88c-1.39-.38-2.8-.73-4.27-1.03,1.4,.27,2.88,.61,4.27,1.03Z"/><path class="d" d="M279.22,87.75c5.26,8.94,6.41,17.83,5.41,27.31-1.41,13.45-8.59,23.69-18.44,31.92-6.95,5.81-10.65,12.92-12.94,21.23-.32,1.15-.55,2.33-1.06,4.51-5.15-12.03-8.67-23.47-4.71-35.47,1.54-4.66,4.79-9.46,8.61-12.52,11.51-9.23,18.55-20.88,21.9-35.02,.09-.36,.41-.67,1.22-1.96Z"/><path class="d" d="M41.78,170.55s-.01,.07-.02,.1c-.69,1.8-1.56,3.27-1.75,3.78,0,0,.07-3.05-.87-6.49-9.66-30.83-46.28-33.95-25.82-81.07,9.7,45.37,45.99,31.29,28.46,83.67Z"/><path class="d" d="M31.16,180.39c3.67-13.68-11.85-20.38-17.84-30.07h-.02c-.37-.54-.68-1.09-.94-1.63-.11-.2-.21-.42-.3-.63-.02-.06-.04-.1-.06-.16-1.29-3.23-1.22-6.32-.93-8.39,.02-.19,.06-.37,.09-.53,.21-1.26,.49-2.03,.49-2.03,2.12,5.58,7.92,11.03,11.24,13.81,0,0,.08,.06,.22,.18,.04,.03,.1,.08,.16,.12,.16,.13,.3,.26,.43,.37,.08,.07,.17,.14,.27,.22,.02,.01,.04,.03,.08,.06,1.53,1.3,4.32,3.79,6.61,6.57,.02,.02,.03,.04,.06,.07,.63,.83,1.22,1.7,1.76,2.57,.07,.08,.11,.14,.13,.2,.03,.06,.04,.09,.04,.09,.44,.73,.84,1.47,1.21,2.23,.01,.01,.01,.03,.02,.04,2.59,5.49,2.84,11.53-2.72,16.91Z"/><path class="d" d="M12,147.9c-1.4-3.3-1.23-6.5-.93-8.39-.29,2.07-.35,5.17,.93,8.39Z"/><path class="d" d="M131.98,43.07c.09-.06,.16-.14,.25-.21-.24,.21-.48,.42-.73,.64,.14-.14,.29-.29,.48-.43Z"/><path class="d" d="M140.55,32.43c-3.43,1.46-6.56,3.01-7.12,3.28,.92-.51,1.86-.99,2.79-1.47,1.39-.7,2.85-1.27,4.32-1.81Z"/><path class="d" d="M145.75,31.91c-1.19,1-2.35,2.05-3.6,2.97-.76,.56-1.52,1.14-2.27,1.72,2.21-1.81,4.31-3.5,5.86-4.73,.01,0,.01,.03,.02,.04Z"/><path class="d" d="M80.37,76.11s-.04,.07-.06,.09l-.04,.06s.06-.09,.1-.14Z"/><path class="d" d="M83.04,72.4c-1.42,1.93-2.35,3.25-2.67,3.7,.51-.84,1.48-2.15,2.67-3.7Z"/><path class="d" d="M255.73,100.96s-.04,.07-.07,.11c-.03,.06-.09,.12-.14,.21,0,0-.01,0-.02,.03-.01,.02-.04,.06-.06,.09-.03,.03-.04,.06-.07,.09-.13,.18-.28,.39-.45,.63,0,.01-.01,.01-.01,.02-.01,.01-.01,.03-.03,.04-.01,.01-.03,.04-.04,.06-1.06,1.46-2.99,4.07-5.63,7.36-.04,.04-.08,.09-.11,.13-.05,.07-.11,.14-.16,.21-.35,.44-.7,.87-1.07,1.31-.07,.09-.14,.18-.21,.26-5.14,5.7-10.48,10.78-16.22,15.19-.01,0-.01,.01-.01,.01-1.19,.9-2.38,1.78-3.6,2.62-.03,.01-.07,.03-.09,.04-.23,.11-.46,.23-.7,.36-.98,.48-1.94,1.01-2.85,1.58-7.03,4.48-14.32,8.13-21.96,10.56-.17,.06-.35,.11-.53,.16-.01,0-.04,.01-.04,.01-.49,.16-.98,.29-1.46,.45-.63,.18-1.28,.35-1.92,.53-6.87,1.78-14.02,2.58-21.47,2.14-12.67-.75-24.88-3.61-35.15-12.02-12.31-10.08-15.8-23.19-13.75-38.29,1.88-13.9,8.02-25.92,16.81-36.7,.97-1.19,1.82-2.46,3.15-4.28-10.66,3.13-25.1,19.56-30.74,34.54-4.56,12.09-5.44,24.03-1.32,35.69,0,0,.01,.04,.04,.11,.85,2.39,1.91,4.78,3.2,7.15,.01,.01,.01,.03,.03,.03,.4,.78,.81,1.54,1.22,2.23,.03,.05,.07,.09,.1,.15,.58,.94,1.14,1.75,1.68,2.31-.24-.14-4.16-2.65-8.46-8.33-.23-.33-.46-.68-.7-1.01-2.49-3.62-4.59-7.41-6.23-11.37-.11-.28-.22-.55-.32-.84h-.01c-1.93-4.93-3.11-10.14-3.39-15.65-.56-11.18,2.75-21.64,8.39-31.28,5.41-9.26,12.31-17.13,20.17-24.13,.24-.22,.48-.43,.73-.64,2.17-1.82,4.81-3.98,7.32-6.02,.1-.08,.21-.17,.32-.24,.75-.58,1.51-1.15,2.27-1.72,1.26-.92,2.41-1.97,3.6-2.97,0-.01,0-.04-.02-.04,1.59-1.29,2.62-2.11,2.62-2.11-1.9,.3-4.89,1.43-7.71,2.64-.03,.01-.06,.03-.09,.04-1.48,.54-2.94,1.12-4.32,1.81-.94,.48-1.87,.95-2.79,1.47-.03,.01-.06,.03-.09,.04-10.6,5.69-20.22,12.72-29.37,20.4-.35,.3-.69,.6-1.04,.9-.68,.56-1.34,1.13-2.01,1.71-.35,.3-.68,.59-1.03,.89-4.83,4.12-9.75,8.29-13.46,11.42-3.48,2.95-5.89,4.96-6.16,5.19h0l.04-.07s.04-.06,.06-.09c.32-.45,1.26-1.78,2.67-3.7,.02-.03,.04-.06,.08-.11,5.25-7.16,16.93-22.53,28.48-33.69,3.77-3.65,7.81-6.94,12.11-9.85h.01c7.11-4.85,14.9-8.7,23.35-11.5,16.64-5.54,32.15-4.49,45.69,7.41,18.3,1.94,30.99,15.05,29.86,31.61-2.37-.9-4.58-1.64-6.69-2.57-25.12-10.78-48.07,4.75-54.14,24.99-5.98,20.03,2.18,44.86,26.34,51.14,2.21,.58,4.41,.99,6.58,1.23,23.25,2.1,46.62-12.07,61.01-30.09Z"/><path class="d" d="M139.55,36.84c-2.5,2.04-5.15,4.2-7.32,6.02,2.36-2.08,4.8-4.09,7.32-6.02Z"/><path class="d" d="M227.81,129.34c-7.61,5.34-16,9.53-25.6,12.54,7.64-2.43,14.93-6.08,21.96-10.56,.91-.57,1.87-1.1,2.85-1.58,.23-.13,.46-.24,.7-.36,.02-.02,.06-.03,.09-.04Z"/><path class="d" d="M255.77,100.9c-.04,.08-.1,.18-.17,.29-.06,.11-.14,.23-.24,.38-.01,.01-.03,.03-.03,.04-.3,.45-.71,1.04-1.21,1.71-.06,.09-.12,.18-.18,.26-.06,.09-.13,.18-.2,.28-1.43,1.95-3.37,4.47-5.07,6.55-.04,.04-.07,.08-.1,.13-.05,.06-.1,.11-.14,.17-.08,.08-.14,.17-.21,.25-.1,.12-.2,.23-.3,.35-.67,.8-1.29,1.51-1.78,2.02,.52-.62,1.02-1.22,1.51-1.82,.08-.08,.14-.17,.21-.26,.38-.43,.73-.87,1.07-1.31,.06-.07,.11-.14,.16-.21,.04-.04,.07-.09,.11-.13,2.64-3.3,4.57-5.9,5.63-7.36,.01-.02,.03-.04,.04-.06,.02-.02,.02-.03,.03-.04,0,0,.01,0,.01-.02,.18-.24,.32-.46,.45-.63,.03-.03,.04-.06,.07-.09,.02-.03,.04-.07,.06-.09,0-.03,.02-.03,.02-.03,.06-.09,.11-.16,.14-.21,.03-.04,.06-.08,.07-.11,0,0,.01-.02,.02-.03,.01,0,.02-.02,.03-.03Z"/><path class="f" d="M123.31,167.27l-3.51-.11c.07-.06,.14-.11,.21-.16,1.5,.12,2.65,.22,3.3,.27Z"/><path class="d" d="M255.61,101.19c-.06,.11-.14,.23-.24,.38,.03-.06,.05-.12,.08-.16,.02-.03,.04-.07,.06-.09,0-.03,.02-.03,.02-.03l.09-.09Z"/><path class="f" d="M78.7,37.69c-1.44,1.7-4.43,5.27-7.75,9.6,2.43-3.33,5.01-6.53,7.75-9.6Z"/><path class="f" d="M57.34,71.74h.01c-.01,.08-.02,.17-.03,.24,0-.08,.01-.17,.02-.24Z"/><path class="f" d="M58.09,68.58c-.04,.17-.08,.33-.12,.51h0c-.19,.55-.33,1.1-.44,1.63-.01,.07-.03,.13-.04,.2,0-.07,.01-.12,.03-.19,.03-.22,.08-.44,.13-.67,.12-.48,.27-.98,.44-1.49Z"/><path class="f" d="M124.49,167.01s-.24,.11-.75,.29h-.01c-.19,.07-.41,.13-.68,.21-1.76,.42-3.47,.75-5.11,1.05-.64,.11-1.28,.22-1.91,.32-.03,0-.07,.01-.1,.01l-.93-2.46s.62,.06,1.56,.14c.12,.01,.25,.02,.39,.03,.58,.04,1.26,.11,1.97,.16,.27,.02,.53,.04,.8,.07,.17,.01,.32,.02,.49,.03,1.91,.14,3.74,.23,4.28,.14Z"/><path class="f" d="M123.72,167.29c-.19,.07-.41,.13-.68,.21-1.76,.42-3.47,.75-5.11,1.05-.64,.11-1.28,.22-1.91,.32-.03,0-.07,.01-.1,.01-10.26,1.59-18.23,1.1-23.87,.08-.02,0-.06-.01-.09-.01-.14-.03-.29-.07-.43-.1-.08-.02-.13-.03-.16-.04h-.01c-3.34-.83-6.5-1.85-9.49-3.02-.01-.01-.02-.01-.02-.01-30.54-11.94-43.68-40.52-38.08-72.02,5.06-28.46,21.16-50.36,42.71-68.32h.01s.11-.11,.33-.29c.07-.06,.13-.12,.22-.19,.09-.08,.18-.14,.27-.22,2.98-2.53,13.7-11.23,23.29-15.07-.17,.13-1.57,1.23-3.71,2.94-2.97,2.36-7.35,5.9-11.82,9.66-.04,.04-.1,.08-.14,.12-4.21,3.26-8.14,6.77-11.8,10.52-1.44,1.4-2.65,2.66-3.53,3.73h-.01c-.04,.07-.22,.27-.51,.6-.14,.14-.28,.3-.39,.44-2.74,3.07-5.32,6.28-7.75,9.6-.24,.33-.5,.68-.75,1.02-3.13,4.32-6.04,8.86-8.76,13.55,0,0,0,.01-.01,.01-.03,.06-.13,.22-.29,.49-.08,.13-.17,.28-.27,.45-.08,.13-.17,.29-.25,.45-.06,.1-.11,.2-.17,.31-.07,.1-.12,.2-.18,.31-.74,1.37-1.69,3.29-2.31,5.2,.04-.18,.08-.34,.12-.51-.18,.51-.32,1.01-.44,1.49-.06,.22-.1,.44-.13,.67-.02,.07-.03,.12-.03,.19h0c-.06,.28-.09,.55-.12,.81h-.01c-.01,.09-.02,.18-.02,.26,.01-.08,.02-.17,.03-.26,.47-.49,15.42-16.14,33.76-17.23-24.98,16.04-36.56,38.19-29.2,67.07,4.63,18.18,14.31,31,28.85,38.25,.47,.24,.93,.47,1.41,.69,6.64,3.09,14.26,5.08,22.83,5.92,0,0,.62,.06,1.56,.14,.12,.01,.25,.02,.39,.03,.58,.04,1.26,.11,1.97,.16,.27,.02,.53,.04,.8,.07,.17,.01,.32,.02,.49,.03-.07,.06-.13,.1-.2,.14-.07,.04-.14,.1-.21,.16l3.51,.11h.26l.15,.02Z"/><path class="f" d="M113.6,127.78c-.13-.18-.28-.35-.41-.54-2.25-3.05-4.57-6.97-6.52-11.84,1.64,3.97,3.75,7.75,6.23,11.37,.23,.33,.46,.68,.7,1.01Z"/><path class="f" d="M122.06,136.11c-.53-.56-1.1-1.37-1.68-2.31l1.68,2.31Z"/><path class="d" d="M43.94,163.44s-2.12,8.42-3.93,11l1.31-8.91,2.63-2.08Z"/><path class="d" d="M33.85,163.44c-.37-.75-.76-1.5-1.21-2.23,0,0-.01-.03-.04-.09-.02-.06-.07-.12-.13-.2-.54-.88-1.13-1.74-1.76-2.57,1.36,1.66,2.54,3.43,3.15,5.09Z"/><path class="d" d="M262.01,182.09c-3.67-13.68,11.85-20.38,17.84-30.07h.02c.37-.54,.68-1.09,.94-1.63,.11-.2,.21-.42,.3-.63,.02-.06,.04-.1,.06-.16,1.29-3.23,1.22-6.32,.93-8.39-.02-.19-.06-.37-.09-.53-.21-1.26-.49-2.03-.49-2.03-2.12,5.58-7.92,11.03-11.24,13.81,0,0-.08,.06-.22,.18-.04,.03-.1,.08-.16,.12-.16,.13-.3,.26-.43,.37-.08,.07-.17,.14-.27,.22-.02,.01-.04,.03-.08,.06-1.53,1.3-4.32,3.79-6.61,6.57-.02,.02-.03,.04-.06,.07-.63,.83-1.22,1.7-1.76,2.57-.07,.08-.11,.14-.13,.2-.03,.06-.04,.09-.04,.09-.44,.73-.84,1.47-1.21,2.23-.01,.01-.01,.03-.02,.04-2.59,5.49-2.84,11.53,2.72,16.91Z"/><path class="e" d="M287.39,156.27s-1.28,3.31-7.15,5.68c0,0,8.62,2.08,7.15-5.68Z"/><path class="d" d="M291.51,117.23s-.63,5.38-3.24,8.06c-2.4,2.46-3.88,6.15-3,8.9,0,0,.87-3.58,4.77-6.57,3.24-2.48,2.57-8.06,1.46-10.39Z"/><path class="e" d="M7.37,157.4s1.28,3.31,7.15,5.68c0,0-8.62,2.08-7.15-5.68Z"/><path class="d" d="M.91,118.24s.63,5.38,3.24,8.06c2.4,2.46,3.88,6.15,3,8.9,0,0-.87-3.58-4.77-6.57-3.24-2.48-2.57-8.06-1.46-10.39Z"/></g></g></g></svg>