<?xml version="1.0" encoding="utf-8"?>
<!-- Generator: Adobe Illustrator 26.2.1, SVG Export Plug-In . SVG Version: 6.00 Build 0)  -->
<svg version="1.1" id="Capa_1" xmlns="http://www.w3.org/2000/svg" xmlns:xlink="http://www.w3.org/1999/xlink" x="0px" y="0px"
	 viewBox="0 0 1160 845.6" style="enable-background:new 0 0 1160 845.6;" xml:space="preserve">
<style type="text/css">
	.st0{opacity:0.17;}
	.st1{clip-path:url(#SVGID_00000075124287695840559040000012293355922991191983_);}
	.st2{fill:#58B6A3;}
	.st3{fill:#42857B;}
	.st4{fill:#79AD9B;}
</style>
<g id="a">
</g>
<g class="st0">
	<g>
		<defs>
			<rect id="SVGID_1_" x="-760" y="-15.3" width="1920" height="1080"/>
		</defs>
		<clipPath id="SVGID_00000051377116733630682430000000928674920651067535_">
			<use xlink:href="#SVGID_1_"  style="overflow:visible;"/>
		</clipPath>
		<g style="clip-path:url(#SVGID_00000051377116733630682430000000928674920651067535_);">
			<g>
				<path class="st2" d="M866.7,652.8c-0.4,0.2-0.7,0.2-1.1,0.3c-2.4,0.7-4.8,1.3-7.2,2C861.2,654.3,864,653.6,866.7,652.8
					L866.7,652.8z"/>
				<path class="st2" d="M873,650.9c-1.4,0.5-2.7,0.9-4.1,1.3c-0.8,0.2-1.5,0.4-2.2,0.6C868.8,652.1,870.9,651.5,873,650.9
					L873,650.9z"/>
				<path class="st2" d="M1001.4,584.7c-0.1,0.2-0.2,0.3-0.3,0.5c-4.8,3.5-9.7,7.1-14.8,10.6c-0.1,0.1-0.2,0.1-0.4,0.2
					C991.1,592.4,996.3,588.7,1001.4,584.7z"/>
				<path class="st3" d="M362.2,180.5c-5.2,5.3-10.3,10.6-15.2,16.1C350.8,191.9,356,186.5,362.2,180.5z"/>
				<path class="st3" d="M251,347.8L251,347.8c0,0.3,0,0.7-0.1,1.1C251,348.5,251,348.1,251,347.8L251,347.8z"/>
				<path class="st3" d="M252.3,340.5c0.5-2,1.2-4.2,1.9-6.4c-0.2,0.7-0.3,1.4-0.5,2.2v0c-0.8,2.3-1.4,4.7-1.9,7l0,0
					C251.9,342.5,252.1,341.5,252.3,340.5L252.3,340.5z"/>
				<path class="st2" d="M954,649.4c-2.1,1.4-4.1,2.8-6.1,4.2c-5.2,3-10.2,5.8-15.1,8.4c-3.7,2-7.4,3.8-10.9,5.6
					C933,661.9,943.7,655.8,954,649.4z"/>
				<path class="st3" d="M1171.4,380.4c-1.8,6.6-3.8,13.1-5.9,19.5c0,0,0,0.1-0.1,0.2c-0.1,0.2-0.1,0.5-0.2,0.8
					c-2.7,7.9-5.6,15.7-8.8,23.3c0,0,0,0-0.1,0c0,0-0.1,0.1-0.1,0.2c-8,19.3-17.6,37.5-28.4,54.9c-1.9,3-3.7,5.8-5.5,8.7
					c1.7-2.4,3.1-4.4,4.1-5.9c-19.1,30.1-46.9,66.3-87.1,104.9c-1.3,1.2-2.6,2.5-3.9,3.7c-8.8,8.5-17.7,16.3-26.5,23.6
					c-1.7,1.4-3.5,2.8-5.2,4.2c-1.7,1.4-3.5,2.8-5.2,4.1c-2.8,2.2-5.6,4.3-8.4,6.4c-0.3,0.2-0.6,0.4-0.9,0.7c-2.5,1.8-5,3.6-7.4,5.3
					c-92.4,65-169.5,65-169.7,65c3-0.5,5.9-1.1,8.8-1.7c0.1,0,0.3,0,0.4-0.1c18.1-3.8,35.4-9.1,51.8-15.5c0.4,0,0.7-0.2,1.1-0.4
					c6.6-2.5,13.1-5.2,19.4-8.2c129.2-59.1,202.5-183,210.8-197.6c0-0.1,0.1-0.1,0.1-0.2c0.4-0.6,0.8-1.1,1.1-1.6
					c0.3-0.5,0.5-0.9,0.7-1.2c-9.3,9.6-21.3,17.6-34.5,24.2c-9.3,3.8-18.5,7.8-27.7,11.6h-0.1c-46.1,16-94.3,19.2-94.3,19.2
					c111.9-53.3,172.8-138.7,157-263.4c-13.9-110.1-75-181-177.9-209.5c-0.4-0.1-0.8-0.2-1.2-0.3c-6-1.8-12.4-3.3-18.4-4.4
					c-12.9-2.5-23.8-3.6-23.8-3.6v-6.1c0,0,0.1,0,0.2,0c0.1,0,0.3,0,0.5-0.1c6.6-1,56.4-7.6,103.6,5.9c0.3,0,0.6,0.1,0.9,0.3
					c4.5,1.3,8.9,2.9,13.3,4.5c0.5,0.1,1,0.4,1.5,0.6h0.1c17.5,6.6,34.5,15,51.1,24.8C1160.3,138.1,1204.9,257.5,1171.4,380.4
					L1171.4,380.4z"/>
				<path class="st2" d="M1102,479.9c-2.3,3.5-9.8,14.8-22.4,30.1v0c-1.8,2.2-3.7,4.4-5.7,6.7c1.8-2.2,3.5-4.3,5.1-6.4
					C1089.6,497,1097.4,486.3,1102,479.9L1102,479.9z"/>
				<path class="st3" d="M927.7,55.2c-6-1.6-12.1-3.2-18.4-4.4C915.3,52,921.8,53.4,927.7,55.2z"/>
				<path class="st2" d="M1207.4,416.8c22.7,38.5,27.6,76.9,23.3,117.7c-6.1,58-37,102.1-79.5,137.6c-30,25-45.9,55.7-55.8,91.5
					c-1.4,5-2.4,10-4.6,19.5c-22.2-51.8-37.4-101.2-20.3-152.9c6.6-20.1,20.7-40.8,37.1-54c49.6-39.8,79.9-90,94.4-151
					C1202.5,423.6,1203.9,422.3,1207.4,416.8L1207.4,416.8z"/>
				<path class="st2" d="M184,773.7c0,0.1,0,0.3-0.1,0.4c-3,7.7-6.7,14.1-7.5,16.3c0,0,0.3-13.1-3.8-28
					C131,629.6-26.9,616.1,61.3,413C103.1,608.6,259.5,547.9,184,773.7L184,773.7z"/>
				<path class="st2" d="M138.2,816.1c15.8-59-51.1-87.8-76.9-129.6l-0.1,0c-1.6-2.3-2.9-4.6-4.1-7c-0.5-0.9-0.9-1.8-1.3-2.7
					c-0.1-0.2-0.2-0.4-0.2-0.7c-5.5-13.9-5.3-27.2-4-36.2c0.1-0.8,0.2-1.6,0.4-2.3c0.9-5.5,2.1-8.8,2.1-8.8
					c9.1,24,34.1,47.5,48.5,59.5c0,0,0.3,0.2,1,0.8c0.2,0.1,0.4,0.3,0.7,0.5c0.7,0.6,1.3,1.1,1.9,1.6c0.3,0.3,0.7,0.6,1.2,1
					c0.1,0,0.2,0.1,0.3,0.2c6.6,5.6,18.6,16.3,28.5,28.3c0.1,0.1,0.1,0.2,0.2,0.3c2.7,3.6,5.3,7.3,7.6,11.1c0.3,0.3,0.5,0.6,0.6,0.9
					c0.1,0.2,0.2,0.4,0.2,0.4c1.9,3.2,3.6,6.4,5.2,9.6c0,0,0,0.1,0.1,0.2C161.1,766.9,162.1,792.9,138.2,816.1L138.2,816.1z"/>
				<path class="st2" d="M55.6,676.1c-6-14.2-5.3-28-4-36.2C50.3,648.8,50,662.2,55.6,676.1z"/>
				<path class="st2" d="M572.8,224.2c0.4-0.3,0.7-0.6,1.1-0.9c-1.1,0.9-2.1,1.8-3.2,2.8C571.3,225.4,572,224.8,572.8,224.2z"/>
				<path class="st2" d="M609.7,178.3c-15.8,6.7-30.1,13.9-31,14.3c4.1-2.2,8.2-4.4,12.4-6.5C597,183.1,603.3,180.7,609.7,178.3z"/>
				<path class="st2" d="M632.1,176.1c-5.2,4.3-10.1,8.8-15.5,12.8c-3.3,2.4-6.5,4.9-9.8,7.4c9.5-7.8,18.5-15.1,25.2-20.4
					C632.1,175.9,632.1,176,632.1,176.1L632.1,176.1z"/>
				<path class="st2" d="M350.3,366.6c-0.1,0.1-0.2,0.3-0.2,0.4l-0.2,0.2C350,367,350.1,366.8,350.3,366.6L350.3,366.6z"/>
				<path class="st2" d="M361.8,350.6c-6.1,8.3-10.1,14-11.5,16C352.5,363,356.7,357.3,361.8,350.6z"/>
				<path class="st2" d="M1106.2,473.7c-0.1,0.1-0.2,0.3-0.3,0.5c-0.2,0.2-0.4,0.5-0.6,0.9c0,0-0.1,0-0.1,0.1
					c-0.1,0.1-0.2,0.2-0.2,0.4s-0.2,0.2-0.3,0.4c-0.6,0.8-1.2,1.7-2,2.7c0,0-0.1,0-0.1,0.1c-0.1,0-0.1,0.1-0.2,0.2
					c-0.1,0-0.1,0.1-0.2,0.2c-4.6,6.3-12.9,17.5-24.3,31.7c-0.2,0.2-0.3,0.4-0.5,0.6c-0.2,0.3-0.5,0.6-0.7,0.9
					c-1.5,1.9-3,3.8-4.6,5.6c-0.3,0.4-0.6,0.8-0.9,1.1c-22.2,24.6-45.2,46.5-69.9,65.5c-0.1,0-0.1,0-0.1,0
					c-5.1,3.9-10.3,7.7-15.5,11.3c-0.2,0-0.3,0.1-0.4,0.2c-1,0.5-2,1-3,1.5c-4.2,2.1-8.4,4.3-12.3,6.8c-30.3,19.3-61.7,35-94.7,45.5
					c-0.7,0.2-1.5,0.5-2.3,0.7c-0.1,0-0.2,0-0.2,0c-2.1,0.7-4.2,1.2-6.3,1.9c-2.7,0.8-5.5,1.5-8.3,2.3c-29.6,7.7-60.4,11.1-92.6,9.2
					c-54.6-3.2-107.2-15.5-151.5-51.8c-53-43.5-68.1-100-59.3-165.1c8.1-59.9,34.6-111.7,72.5-158.2c4.2-5.1,7.8-10.6,13.6-18.4
					c-46,13.5-108.2,84.3-132.5,148.9c-19.6,52.1-23.5,103.6-5.7,153.9c0,0,0.1,0.1,0.2,0.5c3.7,10.3,8.3,20.6,13.8,30.8
					c0.1,0,0.1,0.1,0.1,0.2c1.7,3.3,3.5,6.6,5.2,9.6c0.2,0.2,0.3,0.4,0.4,0.7c2.5,4.1,4.9,7.5,7.2,9.9c-1.1-0.6-17.9-11.4-36.5-35.9
					c-1-1.4-2-2.9-3-4.3c-10.7-15.6-19.8-31.9-26.9-49c-0.5-1.2-0.9-2.4-1.4-3.6l-0.1-0.1c-8.3-21.2-13.4-43.6-14.6-67.4
					c-2.4-48.2,11.8-93.3,36.2-134.8c23.3-39.9,53.1-73.8,86.9-104c1.1-1,2.1-1.9,3.2-2.8c9.4-7.8,20.7-17.2,31.5-25.9
					c0.4-0.3,0.9-0.7,1.4-1.1c3.2-2.5,6.5-5,9.8-7.4c5.4-4,10.4-8.5,15.5-12.8c-0.1-0.1-0.1-0.1-0.1-0.2c6.9-5.6,11.3-9.1,11.3-9.1
					c-8.2,1.3-21.1,6.2-33.2,11.4c-0.1,0.1-0.2,0.1-0.4,0.1c-6.4,2.4-12.7,4.8-18.6,7.8c-4.2,2.1-8.3,4.2-12.4,6.5c0,0,0,0-0.1,0
					c-45.7,24.6-87.2,54.8-126.6,87.9c-1.5,1.3-3,2.6-4.5,3.9c-2.9,2.4-5.8,4.9-8.7,7.4c-1.5,1.3-3,2.5-4.4,3.8
					c-20.8,17.8-42,35.8-58,49.2c-15,12.7-25.4,21.4-26.6,22.4v0l0.2-0.2c0.1-0.1,0.1-0.2,0.2-0.4c1.4-2,5.4-7.6,11.5-16
					c0.1-0.1,0.2-0.3,0.3-0.5c22.6-30.9,73-97.1,122.8-145.2c16.3-15.7,33.7-29.9,52.2-42.5l0.1-0.1c30.6-20.9,64.2-37.5,100.6-49.6
					c71.7-23.8,138.6-19.4,196.9,31.9c78.9,8.4,133.6,64.9,128.7,136.2c-10.2-3.9-19.7-7.1-28.9-11
					c-108.3-46.5-207.2,20.5-233.3,107.7C675.4,464,710.6,571,814.8,598.1c9.5,2.5,19,4.3,28.4,5.3
					C943.4,612.4,1044.1,551.4,1106.2,473.7L1106.2,473.7z"/>
				<path class="st2" d="M605.4,197.3c-10.8,8.8-22.2,18.1-31.5,25.9C584,214.3,594.5,205.6,605.4,197.3z"/>
				<path class="st2" d="M985.8,596.1c-32.8,23-69,41.1-110.3,54c32.9-10.5,64.4-26.2,94.7-45.5c3.9-2.5,8.1-4.7,12.3-6.8
					c1-0.5,2-1,3-1.5C985.6,596.2,985.7,596.1,985.8,596.1L985.8,596.1z"/>
				<path class="st2" d="M1106.4,473.5c-0.2,0.3-0.4,0.8-0.7,1.2c-0.3,0.5-0.6,1-1.1,1.6c-0.1,0-0.1,0.1-0.1,0.2
					c-1.3,1.9-3,4.4-5.2,7.3c0,0,0,0-0.1,0.1c-0.2,0.2-0.3,0.5-0.5,0.7c-0.4,0.5-0.8,1.1-1.2,1.6c-6.2,8.4-14.5,19.3-21.8,28.2
					c-0.4,0.5-0.8,1-1.2,1.5c-0.3,0.3-0.5,0.6-0.7,0.9c-0.4,0.5-0.9,1-1.3,1.5c-2.9,3.4-5.6,6.5-7.7,8.7c2.2-2.7,4.4-5.2,6.5-7.8
					c0.3-0.3,0.6-0.7,0.9-1.1c1.6-1.9,3.2-3.7,4.6-5.6c0.2-0.3,0.5-0.6,0.7-0.9c0.2-0.2,0.3-0.4,0.5-0.6
					c11.4-14.2,19.7-25.4,24.3-31.7c0.1-0.1,0.1-0.2,0.2-0.2c0.1-0.1,0.1-0.1,0.2-0.2c0,0,0.1,0,0.1-0.1c0.8-1,1.4-2,2-2.7
					c0.1-0.1,0.2-0.2,0.3-0.4c0.1-0.1,0.2-0.3,0.2-0.4c0.1-0.1,0.1-0.1,0.1-0.1c0.2-0.4,0.5-0.7,0.6-0.9c0.1-0.2,0.2-0.3,0.3-0.5
					C1106.2,473.6,1106.3,473.6,1106.4,473.5L1106.4,473.5z"/>
				<path class="st3" d="M535.4,759.6l-15.2-0.5c0.3-0.2,0.6-0.5,0.9-0.7C527.6,758.9,532.6,759.4,535.4,759.6L535.4,759.6z"/>
				<path class="st2" d="M1105.7,474.7c-0.3,0.5-0.6,1-1.1,1.6c0.1-0.3,0.2-0.5,0.3-0.7c0.1-0.1,0.2-0.3,0.2-0.4
					c0.1-0.1,0.1-0.1,0.1-0.1L1105.7,474.7L1105.7,474.7z"/>
				<path class="st3" d="M343.1,201c-6.2,7.3-19.1,22.7-33.4,41.4C320.1,228,331.3,214.2,343.1,201L343.1,201z"/>
				<path class="st3" d="M251,347.8L251,347.8c0,0.3,0,0.7-0.1,1.1C251,348.5,251,348.1,251,347.8L251,347.8z"/>
				<path class="st3" d="M254.2,334.1c-0.2,0.7-0.3,1.4-0.5,2.2v0c-0.8,2.3-1.4,4.7-1.9,7c0,0.3-0.1,0.6-0.2,0.9
					c0-0.3,0-0.5,0.1-0.8c0.1-1,0.3-1.9,0.6-2.9C252.9,338.5,253.5,336.3,254.2,334.1L254.2,334.1z"/>
				<path class="st3" d="M540.4,758.4c0,0-1.1,0.5-3.2,1.2h-0.1c-0.8,0.3-1.8,0.6-2.9,0.9c-7.6,1.8-15,3.2-22,4.5
					c-2.8,0.5-5.5,1-8.2,1.4c-0.1,0-0.3,0-0.4,0l-4-10.6c0,0,2.7,0.2,6.7,0.6c0.5,0,1.1,0.1,1.7,0.1c2.5,0.2,5.4,0.5,8.5,0.7
					c1.2,0.1,2.3,0.2,3.4,0.3c0.7,0,1.4,0.1,2.1,0.1C530.2,758.4,538.1,758.8,540.4,758.4L540.4,758.4z"/>
				<path class="st3" d="M537.2,759.6c-0.8,0.3-1.8,0.6-2.9,0.9c-7.6,1.8-15,3.2-22,4.5c-2.8,0.5-5.5,1-8.2,1.4c-0.1,0-0.3,0-0.4,0
					c-44.2,6.8-78.6,4.7-102.9,0.3c-0.1,0-0.2,0-0.4,0c-0.6-0.1-1.2-0.3-1.9-0.4c-0.3-0.1-0.6-0.1-0.7-0.2h-0.1
					c-14.4-3.6-28-8-40.9-13c-0.1,0-0.1,0-0.1,0C225,701.7,168.4,578.5,192.6,442.7c21.8-122.7,91.2-217,184.1-294.5l0.1-0.1
					c0,0,0.5-0.4,1.4-1.2c0.3-0.2,0.6-0.5,0.9-0.8c0.4-0.3,0.8-0.6,1.2-1c12.8-10.9,59.1-48.4,100.4-64.9c-0.7,0.6-6.8,5.3-16,12.7
					c-12.8,10.2-31.7,25.4-50.9,41.6c-0.2,0.2-0.4,0.3-0.6,0.5c-18.2,14.1-35.1,29.2-50.8,45.4c-6.2,6-11.4,11.5-15.2,16.1l-0.1,0.1
					c-0.2,0.2-1,1.1-2.2,2.5c-0.6,0.6-1.2,1.3-1.7,1.9c-11.8,13.2-22.9,27.1-33.4,41.4c-1.1,1.4-2.2,2.9-3.2,4.4
					c-13.5,18.6-26.1,38.2-37.8,58.4c0,0,0,0-0.1,0c-0.1,0.2-0.6,1-1.2,2.1c-0.3,0.6-0.7,1.2-1.2,2c-0.3,0.6-0.7,1.2-1.1,2
					c-0.2,0.4-0.5,0.9-0.7,1.3c-0.3,0.4-0.5,0.9-0.8,1.3c-3.2,5.9-7.3,14.2-9.9,22.4c0.2-0.8,0.3-1.5,0.5-2.2
					c-0.8,2.2-1.4,4.4-1.9,6.4c-0.2,1-0.4,1.9-0.6,2.9c-0.1,0.3-0.1,0.5-0.1,0.8v0c-0.2,1.1-0.4,2.3-0.5,3.4l0,0
					c0,0.3-0.1,0.7-0.1,1c0-0.3,0.1-0.7,0.1-1.1c2-2.1,66.5-69.6,145.5-74.3C288.9,342.6,239,438.1,270.7,562.6
					c20,78.4,61.7,133.6,124.3,164.9c2,1,4,2,6.1,3c28.6,13.3,61.5,21.9,98.4,25.5c0,0,2.7,0.2,6.7,0.6c0.5,0,1.1,0.1,1.7,0.1
					c2.5,0.2,5.4,0.5,8.5,0.7c1.2,0.1,2.3,0.2,3.4,0.3c0.7,0,1.4,0.1,2.1,0.1c-0.3,0.2-0.6,0.4-0.9,0.6s-0.6,0.4-0.9,0.7l15.2,0.5
					l1.1,0L537.2,759.6L537.2,759.6z"/>
				<path class="st3" d="M493.5,589.3c-0.6-0.8-1.2-1.5-1.8-2.3c-9.7-13.1-19.7-30-28.1-51c7.1,17.1,16.2,33.4,26.9,49
					C491.5,586.4,492.5,587.9,493.5,589.3L493.5,589.3z"/>
				<path class="st3" d="M530,625.2c-2.3-2.4-4.7-5.9-7.2-9.9L530,625.2z"/>
				<path class="st2" d="M193.3,743c0,0-9.2,36.3-17,47.4L182,752L193.3,743L193.3,743z"/>
				<path class="st2" d="M149.8,743c-1.6-3.2-3.3-6.5-5.2-9.6c0,0,0-0.1-0.2-0.4c-0.1-0.2-0.3-0.5-0.6-0.9
					c-2.3-3.8-4.9-7.5-7.6-11.1C142.1,728.2,147.2,735.8,149.8,743L149.8,743z"/>
				<path class="st2" d="M1133.2,823.4c-15.8-59,51.1-87.8,76.9-129.6l0.1,0c1.6-2.3,2.9-4.6,4.1-7c0.5-0.9,0.9-1.8,1.3-2.7
					c0.1-0.2,0.2-0.4,0.2-0.7c5.5-13.9,5.3-27.2,4-36.2c-0.1-0.8-0.2-1.6-0.4-2.3c-0.9-5.5-2.1-8.8-2.1-8.8
					c-9.1,24-34.1,47.5-48.5,59.5c0,0-0.3,0.2-0.9,0.8c-0.2,0.1-0.4,0.3-0.7,0.5c-0.7,0.6-1.3,1.1-1.9,1.6c-0.3,0.3-0.7,0.6-1.2,1
					c-0.1,0-0.2,0.1-0.3,0.2c-6.6,5.6-18.6,16.3-28.5,28.3c-0.1,0.1-0.1,0.2-0.2,0.3c-2.7,3.6-5.3,7.3-7.6,11.1
					c-0.3,0.3-0.5,0.6-0.6,0.9c-0.1,0.2-0.2,0.4-0.2,0.4c-1.9,3.2-3.6,6.4-5.2,9.6c-0.1,0-0.1,0.1-0.1,0.2
					C1110.4,774.2,1109.3,800.3,1133.2,823.4L1133.2,823.4z"/>
				<path class="st4" d="M35.7,717c0,0,5.5,14.3,30.8,24.5C66.5,741.5,29.3,750.5,35.7,717z"/>
				<path class="st2" d="M7.8,548.2c0,0,2.7,23.2,14,34.7c10.3,10.6,16.7,26.5,12.9,38.4c0,0-3.8-15.4-20.6-28.3
					C0.1,582.3,3,558.2,7.8,548.2L7.8,548.2z"/>
			</g>
		</g>
	</g>
</g>
</svg>
