<?xml version="1.0" encoding="UTF-8"?><svg xmlns="http://www.w3.org/2000/svg" viewBox="0 0 185.84 163.99"><defs><style>.d{fill:#58b6a3;}.e{fill:#fff;}.f{fill:#79ad9b;}.g{fill:#42857b;}.h{fill:#fefefe;}</style></defs><g id="a"/><g id="b"><g id="c"><g><path class="d" d="M123.36,89c.4-.11,.8-.22,1.19-.33-.06,.02-.1,.03-.15,.05-.34,.1-.69,.19-1.04,.28Z"/><path class="d" d="M124.55,88.67c.3-.1,.61-.18,.91-.28-.2,.07-.39,.12-.59,.19-.11,.03-.21,.06-.32,.09Z"/><path class="d" d="M143.99,78.85s-.03,.05-.05,.08c-.69,.51-1.4,1.03-2.14,1.53-.01,.01-.03,.02-.06,.03,.76-.52,1.5-1.07,2.24-1.63Z"/><path class="g" d="M51.73,20.49c-.75,.76-1.48,1.53-2.19,2.32,.54-.66,1.3-1.45,2.19-2.32Z"/><path class="g" d="M35.68,44.64h0s-.01,.1-.02,.15c0-.05,0-.1,.01-.15Z"/><path class="g" d="M35.87,43.59c.08-.3,.17-.61,.28-.92-.03,.1-.05,.21-.08,.32h0c-.12,.34-.21,.68-.28,1.01h0c.02-.13,.05-.27,.08-.41Z"/><path class="d" d="M137.15,88.18c-.3,.2-.59,.4-.88,.6-.75,.43-1.47,.83-2.17,1.21-.54,.28-1.06,.55-1.57,.81,1.6-.82,3.14-1.7,4.62-2.62Z"/><path class="g" d="M168.53,49.35c-.26,.95-.54,1.89-.86,2.81,0,0,0,.01,0,.03,0,.03-.02,.07-.03,.12-.39,1.15-.81,2.27-1.28,3.37,0,0,0,0,0,0,0,0,0,.02-.01,.03-1.16,2.78-2.55,5.42-4.1,7.93-.27,.43-.54,.84-.8,1.26,.24-.35,.44-.64,.59-.86-2.75,4.34-6.77,9.57-12.57,15.14l-.56,.54c-1.28,1.23-2.55,2.36-3.82,3.4-.25,.21-.5,.41-.75,.61-.25,.21-.5,.4-.75,.59-.41,.32-.81,.62-1.21,.92-.04,.03-.08,.06-.13,.1-.36,.26-.72,.52-1.08,.77-13.33,9.38-24.46,9.39-24.49,9.39,.43-.08,.85-.16,1.28-.25,.02,0,.04,0,.06-.01,2.61-.55,5.1-1.31,7.48-2.24,.06,0,.1-.03,.16-.06,.95-.36,1.89-.75,2.8-1.18,18.65-8.53,29.23-26.41,30.44-28.53,0-.01,0-.02,.01-.03,.06-.09,.11-.17,.15-.23,.04-.07,.08-.13,.1-.18-1.35,1.39-3.07,2.54-4.97,3.49-1.35,.54-2.67,1.12-4,1.68h0c-6.65,2.3-13.62,2.77-13.62,2.77,16.16-7.69,24.95-20.03,22.67-38.02-2.01-15.9-10.83-26.13-25.68-30.24-.05-.02-.11-.03-.17-.05-.86-.26-1.79-.48-2.66-.64-1.87-.36-3.44-.52-3.44-.52V.38s.01,0,.03,0c.02,0,.04,0,.08-.01,.96-.14,8.15-1.1,14.95,.86,.04,0,.09,.02,.13,.04,.65,.19,1.28,.41,1.92,.65,.08,.02,.15,.06,.21,.08h0c2.52,.95,4.97,2.17,7.37,3.59,14.96,8.8,21.41,26.03,16.57,43.78Z"/><path class="d" d="M158.51,63.71c-.33,.51-1.41,2.13-3.24,4.35h0c-.26,.32-.53,.64-.83,.98,.25-.32,.5-.62,.74-.92,1.54-1.94,2.67-3.49,3.32-4.41Z"/><path class="g" d="M133.36,2.41c-.86-.23-1.75-.46-2.66-.64,.87,.17,1.79,.38,2.66,.64Z"/><path class="d" d="M173.73,54.6c3.27,5.56,3.99,11.09,3.37,16.99-.88,8.37-5.34,14.74-11.47,19.86-4.33,3.61-6.63,8.04-8.05,13.21-.2,.72-.34,1.45-.66,2.81-3.21-7.48-5.39-14.6-2.93-22.07,.96-2.9,2.98-5.89,5.36-7.79,7.16-5.74,11.54-12.99,13.63-21.79,.05-.23,.25-.42,.76-1.22Z"/><path class="d" d="M25.99,106.12s0,.04-.01,.06c-.43,1.12-.97,2.03-1.09,2.35,0,0,.04-1.9-.54-4.04-6.01-19.18-28.79-21.12-16.07-50.44,6.04,28.23,28.61,19.47,17.71,52.06Z"/><path class="d" d="M19.39,112.24c2.28-8.51-7.37-12.68-11.1-18.71h-.01c-.23-.34-.42-.68-.59-1.01-.07-.12-.13-.26-.19-.39-.01-.03-.03-.06-.03-.1-.8-2.01-.76-3.93-.58-5.22,.01-.12,.03-.23,.06-.33,.13-.79,.3-1.26,.3-1.26,1.32,3.47,4.93,6.86,6.99,8.6,0,0,.05,.03,.14,.11,.03,.02,.06,.05,.1,.08,.1,.08,.19,.16,.27,.23,.05,.04,.1,.09,.17,.14,.01,0,.03,.02,.05,.03,.95,.81,2.69,2.36,4.11,4.09,.01,.01,.02,.03,.03,.04,.39,.52,.76,1.06,1.1,1.6,.04,.05,.07,.09,.08,.12,.02,.03,.03,.06,.03,.06,.28,.46,.52,.92,.75,1.39,0,0,0,.02,.01,.03,1.61,3.41,1.77,7.17-1.69,10.52Z"/><path class="d" d="M7.47,92.03c-.87-2.06-.77-4.04-.58-5.22-.18,1.29-.22,3.21,.58,5.22Z"/><path class="d" d="M98.62,18.77c0,.22-.59,4.95-1,5.5-.41,.56-9.79,5.06-9.94,5.14-.14,.08-8.86,.57-5.86-2.35,.09-.09,.19-.18,.3-.27,.06-.04,.1-.09,.16-.13,1.35-1.13,2.99-2.48,4.55-3.75,.06-.05,.13-.1,.2-.15,1.37-1.12,2.68-2.17,3.64-2.95,.99-.8,1.63-1.31,1.63-1.31-1.18,.19-3.04,.89-4.79,1.64-.02,0-.03,.01-.06,.02-2.35,1-4.48,2.07-4.48,2.07,0,0-1.17-.75-1.28-.89-.11-.14,0-.19,0-.48s.04-.44,.37-1.26c.33-.81,.92-1.1,1.44-1.62s1.66-1.19,2.95-1.92c1.3-.74,2.63-.85,4.07-.85s4.36,.66,5.28,.92c.92,.26,2.43,1.4,2.51,1.51,.08,.11,.3,.89,.3,1.11Z"/><path class="d" d="M49.95,47.44s.03-.06,.06-.09c-.01,.02-.03,.04-.03,.06l-.03,.03Z"/><path class="d" d="M51.67,45.05c-.88,1.2-1.46,2.02-1.66,2.3,.32-.52,.92-1.34,1.66-2.3Z"/><path class="d" d="M159.12,62.82s-.03,.04-.04,.07c-.02,.03-.06,.08-.09,.13,0,0,0,0-.01,.02,0,.01-.02,.03-.03,.06-.01,.02-.03,.03-.04,.06-.08,.11-.17,.24-.28,.39,0,0,0,0,0,.01,0,0,0,.01-.02,.03,0,0-.01,.02-.02,.03-.66,.91-1.86,2.53-3.5,4.58-.03,.03-.05,.06-.07,.08-.03,.04-.07,.09-.1,.13-.21,.28-.43,.54-.67,.81-.04,.06-.08,.11-.13,.16-3.2,3.55-6.52,6.71-10.09,9.45,0,0,0,0,0,0-.74,.57-1.48,1.11-2.24,1.63-.02,0-.04,.01-.06,.03-.14,.07-.29,.14-.43,.22-.61,.3-1.21,.63-1.77,.99-4.37,2.79-8.91,5.06-13.67,6.57-.1,.03-.21,.07-.33,.1,0,0-.02,0-.03,0-.3,.1-.61,.18-.91,.28-.39,.11-.79,.22-1.19,.33-4.28,1.11-8.72,1.61-13.36,1.33-7.88-.46-15.48-2.24-21.87-7.48-7.66-6.27-9.83-14.43-8.55-23.83,1.17-8.65,4.99-16.13,10.46-22.83,.6-.74,1.13-1.53,1.96-2.66-6.64,1.95-15.62,12.17-19.13,21.49-2.84,7.53-3.39,14.96-.82,22.21,0,0,0,.02,.03,.07,.53,1.49,1.19,2.97,1.99,4.45,0,0,0,.01,.01,.02,.25,.48,.5,.96,.76,1.39,.02,.03,.04,.06,.06,.1,.36,.59,.71,1.09,1.04,1.43-.15-.09-2.59-1.65-5.26-5.18-.14-.21-.29-.42-.43-.63-1.55-2.26-2.86-4.61-3.88-7.08-.07-.17-.14-.34-.2-.52h0c-1.2-3.07-1.94-6.3-2.11-9.74-.34-6.95,1.71-13.47,5.22-19.46,3.37-5.76,7.66-10.66,12.55-15.01,.15-.14,.3-.27,.46-.4,1.47-1.3,2.99-2.55,4.55-3.75,.06-.05,.13-.1,.2-.15,.47-.36,.94-.72,1.41-1.07,.78-.57,1.5-1.23,2.24-1.85,0,0,0-.02-.01-.03,.99-.8,1.63-1.31,1.63-1.31-1.18,.19-3.04,.89-4.79,1.64-.02,0-.03,.01-.06,.02-.92,.34-1.83,.7-2.69,1.13-.6,.3-1.2,.61-1.79,.94-6.59,3.55-12.58,7.91-18.27,12.69-.21,.19-.43,.37-.65,.56-.42,.35-.83,.7-1.25,1.07-.21,.19-.43,.37-.64,.55-3,2.57-6.06,5.16-8.37,7.11-2.17,1.83-3.67,3.09-3.84,3.23h0l.03-.04s.02-.03,.03-.06c.2-.28,.78-1.1,1.66-2.3,.01-.02,.03-.04,.05-.07,3.26-4.46,10.53-14.02,17.72-20.96,2.35-2.27,4.86-4.32,7.53-6.13h0c4.42-3.02,9.27-5.42,14.53-7.16,10.35-3.44,20-2.79,28.43,4.61,11.39,1.21,19.28,9.37,18.58,19.67-1.48-.56-2.85-1.02-4.17-1.59-15.63-6.71-29.91,2.95-33.68,15.55-3.72,12.47,1.36,27.91,16.39,31.82,1.37,.36,2.74,.61,4.1,.77,14.47,1.3,29.01-7.51,37.96-18.72Z"/><path class="d" d="M141.69,80.51s.03-.02,.06-.03c-4.74,3.32-9.95,5.93-15.93,7.8,4.75-1.51,9.29-3.78,13.67-6.57,.57-.36,1.17-.68,1.77-.99,.14-.08,.29-.15,.43-.22Z"/><path class="d" d="M159.15,62.79s-.06,.11-.1,.18c-.04,.07-.09,.14-.15,.23,0,0-.01,.01-.01,.03-.19,.28-.44,.64-.75,1.06-.08,.11-.15,.22-.24,.34-.89,1.21-2.1,2.78-3.15,4.08-.1,.11-.19,.23-.28,.34-.06,.08-.12,.14-.19,.22-.42,.5-.8,.94-1.11,1.26,.32-.39,.63-.76,.94-1.13,.05-.05,.09-.1,.13-.16,.23-.27,.46-.54,.67-.81,.03-.04,.07-.09,.1-.13,.02-.03,.04-.06,.07-.08,1.64-2.05,2.84-3.67,3.5-4.58,0-.01,.01-.03,.02-.03,.01-.01,.01-.02,.02-.03,0,0,0,0,0-.01,.11-.15,.2-.28,.28-.39,.01-.02,.03-.03,.04-.06,.01-.02,.03-.04,.03-.06,0-.01,.01-.02,.01-.02,.03-.06,.07-.1,.09-.13,.01-.03,.03-.05,.04-.07,0-.01,.02-.02,.03-.03Z"/><path class="g" d="M76.72,104.08l-2.19-.07s.09-.07,.13-.1c.93,.08,1.65,.14,2.06,.17Z"/><path class="d" d="M159.04,62.97c-.04,.07-.09,.14-.15,.23,.02-.04,.03-.08,.05-.1,.01-.02,.03-.04,.03-.06,0-.01,.01-.02,.01-.02l.06-.06Z"/><path class="g" d="M48.97,23.45c-.9,1.06-2.76,3.28-4.82,5.97,1.51-2.07,3.12-4.06,4.82-5.97Z"/><path class="g" d="M35.68,44.64h0s-.01,.1-.02,.15c0-.05,0-.1,.01-.15Z"/><path class="g" d="M36.14,42.67c-.03,.1-.05,.21-.08,.32h0c-.12,.34-.21,.68-.28,1.01,0,.04-.02,.08-.03,.12,0-.04,0-.08,.02-.12,.02-.14,.05-.28,.08-.41,.08-.3,.17-.61,.28-.92Z"/><path class="g" d="M77.46,103.91s-.15,.07-.47,.18h0c-.12,.04-.26,.08-.42,.13-1.1,.26-2.16,.47-3.18,.66-.4,.07-.79,.14-1.19,.2-.02,0-.04,0-.06,0l-.58-1.53s.39,.03,.97,.09c.08,0,.16,.01,.24,.02,.36,.03,.79,.07,1.23,.1l.5,.04c.1,0,.2,.01,.3,.02,1.19,.09,2.32,.14,2.66,.09Z"/><path class="g" d="M76.98,104.09c-.12,.04-.26,.08-.42,.13-1.1,.26-2.16,.47-3.18,.66-.4,.07-.79,.14-1.19,.2-.02,0-.04,0-.06,0-6.38,.99-11.34,.68-14.85,.05-.01,0-.03,0-.05,0l-.27-.06s-.08-.02-.1-.03h0c-2.08-.52-4.04-1.15-5.9-1.88,0,0-.01,0-.01,0-19-7.43-27.18-25.21-23.7-44.81,3.15-17.71,13.17-31.33,26.57-42.51h0s.07-.07,.21-.18c.04-.03,.08-.08,.14-.12,.06-.05,.11-.09,.17-.14,1.86-1.57,8.53-6.99,14.49-9.37-.1,.08-.98,.77-2.31,1.83-1.85,1.47-4.57,3.67-7.35,6.01-.03,.03-.06,.05-.09,.08-2.62,2.03-5.06,4.21-7.34,6.55-.9,.87-1.65,1.66-2.19,2.32h0s-.14,.17-.32,.37c-.09,.09-.17,.19-.24,.28-1.7,1.91-3.31,3.9-4.82,5.97-.15,.21-.31,.42-.47,.63-1.95,2.69-3.76,5.51-5.45,8.43,0,0,0,0,0,0-.02,.03-.08,.14-.18,.3-.05,.08-.1,.17-.17,.28-.05,.08-.1,.18-.16,.28-.03,.06-.07,.12-.1,.19-.04,.06-.08,.12-.11,.19-.46,.86-1.05,2.05-1.43,3.24,.03-.11,.05-.21,.08-.32-.11,.32-.2,.63-.28,.92-.03,.14-.06,.28-.08,.41-.01,.04-.02,.08-.02,.12h0c-.03,.17-.06,.34-.08,.5h0c0,.06-.01,.11-.01,.16,0-.05,.01-.1,.02-.16,.29-.3,9.6-10.04,21.01-10.72-15.54,9.98-22.75,23.76-18.17,41.73,2.88,11.31,8.91,19.29,17.95,23.8,.29,.15,.58,.29,.88,.43,4.13,1.92,8.87,3.16,14.2,3.68,0,0,.39,.03,.97,.09,.08,0,.16,.01,.24,.02,.36,.03,.79,.07,1.23,.1l.5,.04c.1,0,.2,.01,.3,.02-.04,.03-.08,.06-.12,.09-.04,.03-.09,.06-.13,.1l2.19,.07h.26Z"/><path class="g" d="M70.25,78.88c.14,.21,.29,.42,.43,.63-.08-.11-.17-.22-.26-.34-1.4-1.9-2.84-4.33-4.06-7.37,1.02,2.47,2.33,4.82,3.88,7.08Z"/><path class="g" d="M75.95,84.69c-.33-.34-.68-.85-1.04-1.43l1.04,1.43Z"/><path class="d" d="M27.34,101.69s-1.32,5.24-2.45,6.84l.81-5.55,1.63-1.3Z"/><path class="d" d="M21.06,101.69c-.23-.47-.48-.93-.75-1.39,0,0,0-.02-.03-.06-.01-.03-.04-.08-.08-.12-.34-.54-.7-1.08-1.1-1.6,.85,1.03,1.58,2.13,1.96,3.17Z"/><path class="d" d="M163.02,113.3c-2.28-8.51,7.37-12.68,11.1-18.71h.01c.23-.34,.42-.68,.59-1.01,.07-.12,.13-.26,.19-.39,.01-.03,.03-.06,.03-.1,.8-2.01,.76-3.93,.58-5.22-.01-.12-.03-.23-.06-.33-.13-.79-.3-1.26-.3-1.26-1.32,3.47-4.93,6.86-6.99,8.6,0,0-.05,.03-.14,.11-.03,.02-.06,.05-.1,.08-.1,.08-.19,.16-.27,.23-.05,.04-.1,.09-.17,.14-.01,0-.03,.02-.05,.03-.95,.81-2.69,2.36-4.11,4.09-.01,.01-.02,.03-.03,.04-.39,.52-.76,1.06-1.1,1.6-.04,.05-.07,.09-.08,.12-.02,.03-.03,.06-.03,.06-.28,.46-.52,.92-.75,1.39,0,0,0,.02-.01,.03-1.61,3.41-1.77,7.17,1.69,10.52Z"/><path class="f" d="M178.82,97.23s-.8,2.06-4.45,3.54c0,0,5.36,1.3,4.45-3.54Z"/><path class="d" d="M181.38,72.94s-.39,3.35-2.02,5.01c-1.49,1.53-2.41,3.83-1.86,5.54,0,0,.54-2.23,2.97-4.09,2.02-1.54,1.6-5.02,.91-6.47Z"/><path class="f" d="M4.59,97.94s.8,2.06,4.45,3.54c0,0-5.36,1.3-4.45-3.54Z"/><path class="d" d="M.57,73.57s.39,3.35,2.02,5.01c1.49,1.53,2.41,3.83,1.86,5.54,0,0-.54-2.23-2.97-4.09-2.02-1.54-1.6-5.02-.91-6.47Z"/></g><g><path class="h" d="M.05,123.58c0-2.4,.03-3.77,.09-4.09,.33-1.22,1.19-1.87,2.58-1.96,.45-.03,2.73-.09,6.85-.18,3.08,0,5.63,.67,7.65,2,2.64,1.75,3.94,4.42,3.91,8.01-.06,2.16-.76,4.16-2.09,5.98-1.33,1.82-3.07,2.99-5.2,3.49-1.01,.27-3.47,.4-7.38,.4h-1.42c0,.86,.01,2.22,.04,4.07,.03,1.85,.04,3.33,.04,4.43,0,1.48-.86,2.22-2.58,2.22-.8,0-1.42-.19-1.85-.56s-.64-.87-.64-1.49c.03-1.9,.05-4.71,.07-8.43s.02-6.58,.02-8.56c0-1.78-.03-3.56-.09-5.34Zm5.05,7.32c.01,.82,.02,1.45,.02,1.89h2.13c2.49,.06,4.23-.04,5.2-.31,1.16-.27,2.08-.92,2.76-1.96,.68-1.04,1.04-2.18,1.07-3.42,.03-2.11-.8-3.6-2.49-4.49-1.1-.56-2.59-.85-4.49-.85-2.22,0-3.65,.02-4.27,.04,0,.47,0,1.55,.02,3.23,.01,1.68,.02,3.03,.02,4.07,0,.39,0,.99,.02,1.8Z"/><path class="h" d="M50.44,145.73c0,1.45-.86,2.18-2.58,2.18s-2.49-.73-2.49-2.18v-3.74l-.04-6.63c-1.48,0-3.8,.01-6.96,.04s-5.55,.04-7.18,.04l.09,10.41c0,1.36-.88,2.05-2.62,2.05-1.63,0-2.45-.7-2.45-2.09,0-1.19,.02-3.63,.07-7.34,.04-3.71,.05-6.57,.02-8.58l-.18-10.19c0-1.51,.88-2.27,2.62-2.27,1.6,0,2.4,.64,2.4,1.91v4.71c0,2.22,.01,4.51,.04,6.85,.03,0,.5,0,1.4,.02,.9,.02,1.86,.02,2.87,.02,.77,0,2.04,0,3.8-.02,1.76-.01,3.05-.02,3.85-.02l2.27-.04c0-1.33,0-3.32-.02-5.96s-.02-4.36-.02-5.16c.03-1.63,.88-2.45,2.54-2.45s2.45,.8,2.45,2.4c0,4.86-.02,9.24-.04,13.12l.18,12.9Z"/><path class="h" d="M81.35,121.45c2.88,2.85,4.31,6.45,4.31,10.81s-1.4,8.21-4.2,11.28c-2.8,3.07-6.32,4.6-10.56,4.6-3.85,0-7.24-1.37-10.16-4.11-2.92-2.74-4.38-6.31-4.38-10.7,0-4.77,1.49-8.67,4.47-11.7s6.38-4.51,10.21-4.45c4,0,7.44,1.42,10.32,4.27Zm-3.65,3.25c-1.99-1.99-4.34-2.98-7.07-2.98-2.55,0-4.74,1.06-6.58,3.18-1.84,2.12-2.76,4.78-2.76,7.98s.95,5.69,2.85,7.65c1.9,1.96,4.24,2.94,7.03,2.94s4.94-1.11,6.8-3.34,2.79-4.82,2.76-7.78c-.03-3.11-1.04-5.66-3.02-7.65Z"/><path class="h" d="M94.87,117.49c.86,0,1.51,.02,1.96,.04,2.14,0,4.39-.01,6.76-.04,2.37-.03,3.78-.04,4.23-.04,1.6,0,2.4,.67,2.4,2,.06,1.25-.4,1.99-1.38,2.22-.65,.03-4.08,.04-10.27,.04h-1.96v4.27l-.04,4.18v.58h1.78c1.42,0,3.83-.04,7.21-.13,.95,0,1.65,.14,2.09,.42,.45,.28,.65,.85,.62,1.71,0,1.39-.77,2.09-2.31,2.09-.68,0-2.29,0-4.83,.02-2.54,.02-4.08,.02-4.65,.02-.03,.59-.04,1.54-.04,2.85,0,.59,0,1.53-.02,2.8s-.02,2.22-.02,2.85c1.19,.03,4.57,.01,10.14-.04,1.19-.06,1.91-.09,2.18-.09,1.3,0,1.96,.73,1.96,2.18,0,1.54-.83,2.33-2.49,2.36h-11.96c-1.87,0-3.11-.17-3.71-.51-.61-.34-.94-1.1-1-2.29v-1.65s0-.27,.02-.71c.01-.44,.03-1.07,.04-1.87,.01-.8,.03-1.7,.04-2.69,.01-.99,.03-2.16,.04-3.51s.02-2.68,.02-3.98c0-1.19,0-2.98,.02-5.38s.02-4.21,.02-5.43c.09-1.51,1.14-2.27,3.16-2.27Z"/><path class="h" d="M118.67,147.87c-1.69,0-2.55-.74-2.58-2.22,0-1.81,.01-5.52,.04-11.12v-14.86c0-.68,.3-1.22,.89-1.62,.59-.4,1.29-.6,2.09-.6,.65,0,1.21,.19,1.67,.56,.46,.37,.96,.93,1.49,1.67l10.36,14.63,3.56,5.07c-.06-3.08-.09-6.09-.09-9.03l-.09-9.79c-.03-1.04,.14-1.82,.51-2.34,.37-.52,1.04-.78,2.02-.78,1.57,0,2.36,.95,2.36,2.85,0,1.63,0,4.12-.02,7.47-.02,3.35-.02,5.83-.02,7.43,.06,3.2,.09,6.63,.09,10.27,0,.71-.28,1.28-.85,1.71-.56,.43-1.26,.65-2.09,.65-.62,0-1.13-.16-1.54-.49s-.9-.89-1.49-1.69l-14.14-20.24c0,.92,.06,7.49,.18,19.7,0,1.84-.79,2.76-2.36,2.76Z"/><path class="h" d="M148.69,119.67c0-.8,.24-1.39,.73-1.78,.49-.39,1.1-.58,1.85-.58s1.29,.19,1.74,.56c.44,.37,.67,.9,.67,1.58v10.81c0,.71,0,1.93-.02,3.65s-.02,2.85-.02,3.38l.04,8.14c.03,.83-.19,1.45-.65,1.85-.46,.4-1.07,.6-1.85,.6s-1.35-.19-1.82-.58c-.47-.39-.71-.96-.71-1.73,0-.36,0-.99,.02-1.89s.02-1.59,.02-2.07l.09-12.19c0-1.33-.03-4.58-.09-9.74Z"/><path class="h" d="M170.39,137.73l-6.49,8.9c-.62,.83-1.33,1.25-2.14,1.25-.65,0-1.25-.23-1.8-.69-.55-.46-.82-.99-.82-1.58,0-.62,.24-1.23,.71-1.82l9.03-11.61c-.15-.21-2.96-3.75-8.45-10.63-.5-.65-.76-1.25-.76-1.78,0-.59,.28-1.13,.84-1.62s1.17-.73,1.82-.73c.8,0,1.54,.46,2.22,1.38l7.38,9.87,7.52-10.01c.65-.86,1.39-1.29,2.22-1.29,.68,0,1.28,.24,1.8,.71,.52,.47,.78,.99,.78,1.56,0,.5-.21,1.04-.62,1.6l-8.67,10.99,8.81,11.08c.71,.89,1.07,1.62,1.07,2.18,0,.59-.29,1.13-.87,1.62s-1.21,.73-1.89,.73c-.83,0-1.62-.52-2.36-1.56l-5.96-8.23-1.82-2.31-1.56,2Z"/></g><g><path class="e" d="M1.92,157.83v2.06h2.43v.94H1.92v2.15h2.73v.94H.77v-7.04h3.88v.94H1.92Z"/><path class="e" d="M7.32,162.99h2.38v.93h-3.53v-7.03h1.15v6.1Z"/><path class="e" d="M11.91,157.83v2.06h2.43v.94h-2.43v2.15h2.73v.94h-3.88v-7.04h3.88v.94h-2.73Z"/><path class="e" d="M16.25,158.54c.32-.55,.75-.97,1.3-1.28,.55-.31,1.15-.46,1.8-.46,.75,0,1.41,.18,2,.55,.58,.37,1.01,.89,1.27,1.56h-1.39c-.18-.37-.43-.65-.76-.83-.32-.18-.7-.27-1.12-.27-.47,0-.88,.1-1.24,.31s-.65,.51-.85,.9c-.21,.39-.31,.85-.31,1.36s.1,.97,.31,1.37c.21,.39,.49,.69,.85,.9s.78,.32,1.24,.32c.42,0,.8-.09,1.12-.27s.58-.46,.76-.83h1.39c-.26,.67-.69,1.19-1.27,1.56-.58,.36-1.25,.55-2,.55-.66,0-1.26-.15-1.81-.46s-.98-.73-1.3-1.28c-.32-.55-.48-1.16-.48-1.85s.16-1.3,.48-1.85Z"/><path class="e" d="M28.61,156.9v.94h-1.87v6.09h-1.15v-6.09h-1.88v-.94h4.9Z"/><path class="e" d="M33.52,163.92l-1.62-2.81h-.88v2.81h-1.15v-7.03h2.43c.54,0,1,.09,1.37,.28,.37,.19,.65,.44,.84,.76s.28,.67,.28,1.06c0,.46-.13,.88-.4,1.25-.27,.37-.68,.63-1.23,.76l1.74,2.91h-1.38Zm-2.5-3.73h1.27c.43,0,.76-.11,.98-.32,.22-.22,.33-.51,.33-.87s-.11-.65-.32-.85-.54-.31-.98-.31h-1.27v2.36Z"/><path class="e" d="M37.77,163.53c-.55-.31-.98-.73-1.3-1.28s-.48-1.17-.48-1.86,.16-1.3,.48-1.85c.32-.55,.75-.97,1.3-1.28,.55-.31,1.15-.46,1.8-.46s1.27,.15,1.81,.46c.55,.31,.98,.73,1.3,1.28,.32,.55,.47,1.16,.47,1.85s-.16,1.31-.47,1.86c-.32,.55-.75,.98-1.3,1.28-.55,.31-1.15,.46-1.81,.46s-1.26-.15-1.8-.46Zm3.05-.86c.36-.21,.65-.52,.85-.91s.31-.85,.31-1.37-.1-.97-.31-1.36c-.21-.39-.49-.69-.85-.9s-.78-.31-1.24-.31-.88,.1-1.24,.31-.65,.51-.85,.9c-.21,.39-.31,.85-.31,1.36s.1,.98,.31,1.37c.21,.39,.49,.7,.85,.91,.36,.21,.78,.32,1.24,.32s.88-.11,1.24-.32Z"/><path class="e" d="M45.55,157.83v2.06h2.43v.94h-2.43v2.15h2.73v.94h-3.88v-7.04h3.88v.94h-2.73Z"/><path class="e" d="M50.84,163.75c-.38-.17-.67-.4-.89-.7-.22-.3-.32-.66-.32-1.06h1.23c.03,.3,.15,.55,.36,.75,.21,.2,.51,.29,.9,.29s.71-.1,.93-.29c.22-.19,.33-.44,.33-.74,0-.24-.07-.43-.21-.58-.14-.15-.31-.26-.52-.34-.21-.08-.49-.17-.85-.26-.46-.12-.83-.24-1.12-.37-.29-.12-.53-.32-.73-.58-.2-.26-.3-.61-.3-1.05,0-.4,.1-.76,.3-1.06,.2-.3,.49-.54,.85-.7,.36-.16,.79-.24,1.26-.24,.68,0,1.24,.17,1.67,.51,.44,.34,.68,.81,.72,1.4h-1.27c-.02-.26-.14-.48-.36-.66-.22-.18-.52-.27-.88-.27-.33,0-.6,.08-.81,.25s-.31,.41-.31,.73c0,.22,.07,.39,.2,.53,.13,.14,.3,.25,.5,.33,.2,.08,.48,.17,.83,.26,.46,.13,.84,.26,1.14,.38,.29,.13,.54,.33,.75,.59,.21,.27,.31,.62,.31,1.07,0,.36-.1,.69-.29,1.01-.19,.32-.47,.57-.84,.76-.37,.19-.8,.29-1.3,.29s-.9-.08-1.27-.25Z"/><path class="e" d="M60.54,156.9v.94h-1.87v6.09h-1.15v-6.09h-1.88v-.94h4.9Z"/><path class="e" d="M62.96,157.83v2.06h2.43v.94h-2.43v2.15h2.73v.94h-3.88v-7.04h3.88v.94h-2.73Zm1.78-2.44l-2.23,1.1v-.85l2.23-1.23v.98Z"/><path class="e" d="M71.74,156.9v.94h-1.87v6.09h-1.15v-6.09h-1.88v-.94h4.9Z"/><path class="e" d="M74.16,156.9v7.03h-1.15v-7.03h1.15Z"/><path class="e" d="M75.87,158.54c.32-.55,.75-.97,1.3-1.28,.55-.31,1.15-.46,1.8-.46,.75,0,1.41,.18,2,.55,.58,.37,1.01,.89,1.27,1.56h-1.39c-.18-.37-.43-.65-.76-.83-.32-.18-.7-.27-1.12-.27-.47,0-.88,.1-1.24,.31s-.65,.51-.85,.9c-.21,.39-.31,.85-.31,1.36s.1,.97,.31,1.37c.21,.39,.49,.69,.85,.9s.78,.32,1.24,.32c.42,0,.8-.09,1.12-.27s.58-.46,.76-.83h1.39c-.26,.67-.69,1.19-1.27,1.56-.58,.36-1.25,.55-2,.55-.66,0-1.26-.15-1.81-.46s-.98-.73-1.3-1.28c-.32-.55-.48-1.16-.48-1.85s.16-1.3,.48-1.85Z"/><path class="e" d="M87.93,162.49h-2.94l-.51,1.44h-1.2l2.52-7.04h1.33l2.52,7.04h-1.21l-.5-1.44Zm-.32-.94l-1.14-3.27-1.15,3.27h2.29Z"/><path class="e" d="M98.78,156.9l-2.33,4.48v2.55h-1.15v-2.55l-2.34-4.48h1.28l1.63,3.45,1.63-3.45h1.27Z"/><path class="e" d="M103.68,157.83v2.06h2.43v.94h-2.43v2.15h2.73v.94h-3.88v-7.04h3.88v.94h-2.73Z"/><path class="e" d="M109.07,162.99h2.38v.93h-3.53v-7.03h1.15v6.1Z"/><path class="e" d="M113.66,157.83v2.06h2.43v.94h-2.43v2.15h2.73v.94h-3.88v-7.04h3.88v.94h-2.73Z"/><path class="e" d="M118.01,158.54c.32-.55,.75-.97,1.3-1.28,.55-.31,1.15-.46,1.8-.46,.75,0,1.41,.18,2,.55,.58,.37,1.01,.89,1.27,1.56h-1.39c-.18-.37-.43-.65-.76-.83-.32-.18-.7-.27-1.12-.27-.47,0-.88,.1-1.24,.31s-.65,.51-.85,.9c-.21,.39-.31,.85-.31,1.36s.1,.97,.31,1.37c.21,.39,.49,.69,.85,.9s.78,.32,1.24,.32c.42,0,.8-.09,1.12-.27s.58-.46,.76-.83h1.39c-.26,.67-.69,1.19-1.27,1.56-.58,.36-1.25,.55-2,.55-.66,0-1.26-.15-1.81-.46s-.98-.73-1.3-1.28c-.32-.55-.48-1.16-.48-1.85s.16-1.3,.48-1.85Z"/><path class="e" d="M130.37,156.9v.94h-1.87v6.09h-1.15v-6.09h-1.88v-.94h4.9Z"/><path class="e" d="M135.28,163.92l-1.62-2.81h-.88v2.81h-1.15v-7.03h2.43c.54,0,1,.09,1.37,.28,.37,.19,.65,.44,.84,.76s.28,.67,.28,1.06c0,.46-.13,.88-.4,1.25-.27,.37-.68,.63-1.23,.76l1.74,2.91h-1.38Zm-2.5-3.73h1.27c.43,0,.76-.11,.98-.32,.22-.22,.33-.51,.33-.87s-.11-.65-.32-.85-.54-.31-.98-.31h-1.27v2.36Z"/><path class="e" d="M139.52,163.53c-.55-.31-.98-.73-1.3-1.28s-.48-1.17-.48-1.86,.16-1.3,.48-1.85c.32-.55,.75-.97,1.3-1.28,.55-.31,1.15-.46,1.8-.46s1.27,.15,1.81,.46c.55,.31,.98,.73,1.3,1.28,.32,.55,.47,1.16,.47,1.85s-.16,1.31-.47,1.86c-.32,.55-.75,.98-1.3,1.28-.55,.31-1.15,.46-1.81,.46s-1.26-.15-1.8-.46Zm3.05-.86c.36-.21,.65-.52,.85-.91s.31-.85,.31-1.37-.1-.97-.31-1.36c-.21-.39-.49-.69-.85-.9s-.78-.31-1.24-.31-.88,.1-1.24,.31-.65,.51-.85,.9c-.21,.39-.31,.85-.31,1.36s.1,.98,.31,1.37c.21,.39,.49,.7,.85,.91,.36,.21,.78,.32,1.24,.32s.88-.11,1.24-.32Z"/><path class="e" d="M150.69,156.9v.94h-1.87v6.09h-1.15v-6.09h-1.88v-.94h4.9Z"/><path class="e" d="M153.11,157.83v2.06h2.43v.94h-2.43v2.15h2.73v.94h-3.88v-7.04h3.88v.94h-2.73Z"/><path class="e" d="M161,163.92l-1.62-2.81h-.88v2.81h-1.15v-7.03h2.43c.54,0,1,.09,1.37,.28,.37,.19,.65,.44,.84,.76s.28,.67,.28,1.06c0,.46-.13,.88-.4,1.25-.27,.37-.68,.63-1.23,.76l1.74,2.91h-1.38Zm-2.5-3.73h1.27c.43,0,.76-.11,.98-.32,.22-.22,.33-.51,.33-.87s-.11-.65-.32-.85-.54-.31-.98-.31h-1.27v2.36Z"/><path class="e" d="M168.08,162.49h-2.94l-.51,1.44h-1.2l2.52-7.04h1.33l2.52,7.04h-1.21l-.5-1.44Zm-.32-.94l-1.14-3.27-1.15,3.27h2.29Z"/><path class="e" d="M175.65,160c-.17,.32-.44,.58-.81,.77-.37,.2-.85,.3-1.43,.3h-1.27v2.85h-1.15v-7.03h2.43c.54,0,1,.09,1.37,.28s.65,.44,.84,.75c.19,.32,.28,.67,.28,1.06,0,.36-.08,.69-.25,1.01Zm-1.25-.17c.22-.2,.32-.48,.32-.84,0-.77-.43-1.15-1.3-1.15h-1.27v2.3h1.27c.44,0,.77-.1,.98-.3Z"/><path class="e" d="M178.26,156.9v7.03h-1.15v-7.03h1.15Z"/><path class="e" d="M184.12,162.49h-2.94l-.51,1.44h-1.2l2.52-7.04h1.33l2.52,7.04h-1.21l-.5-1.44Zm-.32-.94l-1.14-3.27-1.15,3.27h2.29Z"/></g></g></g></svg>