<?xml version="1.0" encoding="UTF-8"?><svg xmlns="http://www.w3.org/2000/svg" viewBox="0 0 186.38 164.47"><defs><style>.d{fill:#fff;}</style></defs><g id="a"/><g id="b"><g id="c"><g><path class="d" d="M124.92,88.93c-.06,.02-.11,.04-.15,.05-.35,.1-.69,.2-1.05,.29,.4-.11,.8-.22,1.2-.33Z"/><path class="d" d="M125.83,88.65c-.2,.07-.4,.13-.6,.19-.11,.04-.22,.06-.32,.09,.3-.1,.61-.18,.91-.28Z"/><path class="d" d="M144.41,79.08s-.04,.05-.05,.07c-.69,.51-1.41,1.03-2.15,1.54-.01,.02-.04,.02-.05,.03,.76-.52,1.51-1.07,2.25-1.64Z"/><path class="d" d="M51.88,20.55c-.75,.76-1.49,1.54-2.2,2.32,.55-.66,1.3-1.45,2.2-2.32Z"/><path class="d" d="M35.78,44.77h0s-.01,.1-.02,.15c0-.05,0-.1,.01-.15Z"/><path class="d" d="M35.97,43.72c.08-.3,.17-.61,.28-.93-.03,.1-.05,.21-.08,.32h0c-.12,.35-.21,.68-.28,1.02h0c.02-.13,.05-.27,.08-.41Z"/><path class="d" d="M137.55,88.44c-.3,.2-.59,.4-.88,.6-.75,.44-1.47,.84-2.18,1.22-.54,.28-1.07,.55-1.58,.81,1.6-.82,3.15-1.7,4.64-2.63Z"/><path class="d" d="M169.03,49.5c-.26,.95-.55,1.9-.86,2.82,0,0,0,.01,0,.03,0,.03-.02,.07-.03,.12-.39,1.15-.82,2.28-1.28,3.38,0,0,0,0,0,0,0,0,0,.02-.01,.03-1.16,2.79-2.55,5.43-4.12,7.95-.27,.43-.54,.84-.8,1.26,.24-.35,.44-.64,.59-.86-2.76,4.35-6.79,9.6-12.61,15.19l-.56,.54c-1.28,1.23-2.56,2.37-3.83,3.41-.25,.21-.51,.41-.75,.61-.25,.21-.5,.4-.75,.6-.41,.32-.82,.62-1.22,.92-.04,.03-.08,.06-.13,.1-.36,.26-.72,.52-1.08,.77-13.37,9.41-24.53,9.42-24.56,9.42,.43-.08,.85-.16,1.28-.25,.02,0,.04,0,.06-.01,2.62-.55,5.12-1.31,7.5-2.24,.06,0,.1-.03,.16-.06,.95-.36,1.9-.75,2.81-1.18,18.71-8.56,29.31-26.49,30.52-28.61,0-.01,0-.02,.01-.03,.06-.09,.11-.17,.15-.24,.04-.07,.08-.13,.1-.18-1.35,1.4-3.08,2.55-4.99,3.5-1.35,.55-2.68,1.13-4.01,1.68h0c-6.67,2.31-13.66,2.78-13.66,2.78,16.2-7.71,25.02-20.08,22.73-38.13-2.02-15.95-10.86-26.21-25.76-30.33-.06-.02-.11-.03-.17-.05-.86-.26-1.79-.48-2.66-.64-1.87-.36-3.45-.52-3.45-.52V.38s.01,0,.03,0c.02,0,.04,0,.08-.01,.96-.14,8.17-1.1,14.99,.86,.04,0,.09,.02,.13,.04,.65,.19,1.29,.42,1.92,.65,.08,.02,.15,.06,.21,.08h0c2.53,.95,4.99,2.18,7.4,3.6,15.01,8.83,21.47,26.11,16.62,43.91Z"/><path class="d" d="M158.97,63.9c-.33,.51-1.41,2.14-3.24,4.36h0c-.26,.32-.53,.64-.83,.98,.26-.32,.51-.62,.74-.92,1.54-1.94,2.68-3.5,3.33-4.42Z"/><path class="d" d="M133.75,2.42c-.86-.24-1.75-.46-2.66-.64,.87,.17,1.8,.38,2.66,.64Z"/><path class="d" d="M174.24,54.76c3.28,5.58,4,11.13,3.38,17.04-.88,8.39-5.36,14.79-11.51,19.92-4.34,3.62-6.65,8.06-8.07,13.25-.2,.72-.34,1.45-.66,2.82-3.22-7.51-5.41-14.64-2.94-22.13,.96-2.91,2.99-5.9,5.37-7.81,7.18-5.76,11.57-13.03,13.67-21.85,.05-.23,.25-.42,.76-1.22Z"/><path class="d" d="M26.07,106.43s0,.04-.01,.06c-.43,1.12-.97,2.04-1.09,2.36,0,0,.04-1.9-.54-4.05-6.03-19.24-28.88-21.18-16.11-50.59,6.05,28.31,28.7,19.52,17.76,52.21Z"/><path class="d" d="M19.44,112.57c2.29-8.54-7.4-12.72-11.13-18.76h-.01c-.23-.34-.42-.68-.59-1.02-.07-.12-.13-.26-.19-.39-.01-.03-.03-.06-.03-.1-.8-2.01-.76-3.94-.58-5.24,.01-.12,.03-.23,.06-.33,.13-.79,.3-1.27,.3-1.27,1.32,3.48,4.94,6.88,7.02,8.62,0,0,.05,.03,.14,.11,.03,.02,.06,.05,.1,.08,.1,.08,.19,.16,.27,.23,.05,.04,.1,.09,.17,.14,.01,0,.03,.02,.05,.03,.96,.81,2.7,2.37,4.12,4.1,.01,.01,.02,.03,.03,.04,.39,.52,.76,1.06,1.1,1.61,.04,.05,.07,.09,.08,.12,.02,.03,.03,.06,.03,.06,.28,.46,.53,.92,.75,1.39,0,0,0,.02,.01,.03,1.62,3.42,1.77,7.2-1.69,10.55Z"/><path class="d" d="M7.49,92.3c-.87-2.06-.77-4.05-.58-5.24-.18,1.29-.22,3.22,.58,5.24Z"/><path class="d" d="M82.36,26.87c.05-.04,.1-.09,.16-.13-.15,.13-.3,.26-.45,.4,.09-.09,.18-.18,.3-.27Z"/><path class="d" d="M87.71,20.24c-2.14,.91-4.09,1.88-4.44,2.05,.58-.32,1.16-.62,1.74-.92,.87-.43,1.78-.8,2.7-1.13Z"/><path class="d" d="M90.95,19.91c-.74,.62-1.46,1.28-2.25,1.85-.47,.35-.95,.71-1.42,1.07,1.38-1.13,2.69-2.18,3.65-2.95,0,0,0,.02,.01,.03Z"/><path class="d" d="M50.15,47.49s-.03,.04-.04,.05l-.03,.04s.04-.05,.06-.09Z"/><path class="d" d="M51.82,45.18c-.89,1.2-1.47,2.03-1.67,2.31,.32-.52,.92-1.34,1.67-2.31Z"/><path class="d" d="M159.58,63s-.03,.04-.04,.07c-.02,.04-.05,.07-.09,.13,0,0,0,0-.01,.02,0,.01-.02,.04-.04,.05l-.04,.05c-.08,.11-.17,.24-.28,.4,0,0,0,0,0,.01,0,0,0,.02-.02,.03,0,0-.02,.02-.02,.04-.66,.91-1.86,2.54-3.51,4.59-.03,.03-.05,.05-.07,.08-.03,.04-.07,.09-.1,.13-.22,.27-.43,.54-.67,.81-.04,.05-.09,.11-.13,.16-3.21,3.56-6.54,6.73-10.12,9.48,0,0,0,0,0,0-.74,.56-1.49,1.11-2.25,1.64-.02,0-.04,.02-.05,.03-.14,.07-.29,.14-.43,.22-.61,.3-1.21,.63-1.78,.99-4.39,2.8-8.94,5.07-13.7,6.59-.11,.04-.22,.07-.33,.1,0,0-.02,0-.03,0-.31,.1-.61,.18-.91,.28-.4,.11-.8,.22-1.2,.33-4.29,1.11-8.75,1.61-13.4,1.34-7.91-.47-15.53-2.25-21.93-7.5-7.68-6.29-9.86-14.47-8.58-23.9,1.18-8.68,5-16.18,10.49-22.9,.6-.74,1.14-1.54,1.97-2.67-6.65,1.95-15.66,12.2-19.18,21.55-2.84,7.55-3.4,15-.82,22.27,0,0,0,.02,.03,.07,.53,1.49,1.19,2.98,2,4.46,0,0,0,.02,.02,.02,.25,.49,.51,.96,.76,1.39,.02,.03,.04,.06,.06,.09,.36,.59,.71,1.09,1.05,1.44-.15-.09-2.6-1.66-5.28-5.2-.14-.21-.29-.42-.43-.63-1.55-2.26-2.87-4.62-3.89-7.1-.07-.17-.14-.34-.2-.52h0c-1.2-3.08-1.94-6.33-2.12-9.77-.35-6.98,1.72-13.51,5.24-19.52,3.38-5.78,7.68-10.69,12.58-15.06,.15-.14,.3-.27,.45-.4,1.36-1.14,3-2.48,4.57-3.76,.06-.05,.13-.11,.2-.15,.47-.36,.94-.72,1.42-1.07,.78-.58,1.5-1.23,2.25-1.85,0,0,0-.02-.01-.03,.99-.8,1.63-1.32,1.63-1.32-1.18,.19-3.05,.89-4.81,1.65-.02,0-.04,.02-.05,.02-.92,.34-1.83,.7-2.7,1.13-.58,.3-1.17,.6-1.74,.92-.02,0-.04,.02-.05,.03-6.62,3.55-12.62,7.94-18.33,12.73-.22,.18-.43,.37-.65,.56-.42,.35-.84,.71-1.25,1.07-.22,.19-.43,.37-.64,.56-3.01,2.57-6.08,5.17-8.4,7.12-2.17,1.84-3.68,3.1-3.85,3.24h0l.03-.04s.02-.04,.04-.05c.2-.28,.78-1.11,1.67-2.31,.01-.02,.03-.04,.05-.07,3.27-4.47,10.57-14.06,17.77-21.03,2.35-2.28,4.88-4.33,7.56-6.15h0c4.43-3.03,9.3-5.43,14.57-7.18,10.38-3.45,20.06-2.8,28.51,4.62,11.42,1.21,19.34,9.39,18.64,19.72-1.48-.56-2.86-1.03-4.18-1.6-15.68-6.73-30,2.96-33.79,15.6-3.73,12.5,1.36,27.99,16.44,31.91,1.38,.36,2.75,.61,4.11,.77,14.51,1.31,29.09-7.53,38.07-18.78Z"/><path class="d" d="M87.08,22.99c-1.56,1.27-3.21,2.62-4.57,3.76,1.47-1.3,3-2.55,4.57-3.76Z"/><path class="d" d="M142.16,80.71c-4.75,3.33-9.98,5.95-15.97,7.83,4.77-1.52,9.32-3.79,13.7-6.59,.57-.36,1.17-.69,1.78-.99,.14-.08,.29-.15,.43-.22,.01-.01,.04-.02,.05-.03Z"/><path class="d" d="M159.61,62.97c-.03,.05-.06,.11-.11,.18-.04,.07-.09,.14-.15,.24,0,0-.02,.02-.02,.03-.19,.28-.44,.65-.76,1.07-.04,.05-.07,.11-.11,.16-.04,.05-.08,.11-.13,.17-.89,1.22-2.1,2.79-3.16,4.09-.02,.03-.04,.05-.06,.08-.03,.04-.06,.07-.09,.11-.05,.05-.09,.11-.13,.16-.06,.07-.13,.14-.19,.22-.42,.5-.8,.94-1.11,1.26,.33-.39,.63-.76,.94-1.14,.05-.05,.09-.11,.13-.16,.24-.27,.45-.54,.67-.81,.04-.04,.07-.09,.1-.13,.02-.03,.04-.05,.07-.08,1.65-2.06,2.85-3.68,3.51-4.59,0-.01,.02-.03,.02-.04,.01-.01,.01-.02,.02-.03,0,0,0,0,0-.01,.11-.15,.2-.29,.28-.4l.04-.05s.03-.04,.04-.05c0-.02,.01-.02,.01-.02,.04-.06,.07-.1,.09-.13,.02-.03,.04-.05,.04-.07v-.02s.02-.01,.03-.02Z"/><path class="d" d="M76.95,104.38l-2.19-.07s.09-.07,.13-.1c.93,.08,1.65,.14,2.06,.17Z"/><path class="d" d="M159.51,63.15c-.04,.07-.09,.14-.15,.24,.02-.04,.03-.07,.05-.1,.01-.02,.03-.04,.04-.05,0-.02,.01-.02,.01-.02l.05-.06Z"/><path class="d" d="M49.11,23.52c-.9,1.06-2.77,3.29-4.84,5.99,1.51-2.08,3.13-4.07,4.84-5.99Z"/><path class="d" d="M35.78,44.77h0s-.01,.1-.02,.15c0-.05,0-.1,.01-.15Z"/><path class="d" d="M36.25,42.8c-.03,.1-.05,.21-.08,.32h0c-.12,.35-.21,.68-.28,1.02,0,.04-.02,.08-.03,.12,0-.04,0-.08,.02-.12,.02-.14,.05-.28,.08-.42,.08-.3,.17-.61,.28-.93Z"/><path class="d" d="M77.68,104.22s-.15,.07-.47,.18h0c-.12,.04-.26,.08-.42,.13-1.1,.26-2.17,.47-3.19,.66-.4,.07-.8,.14-1.19,.2-.02,0-.04,0-.06,0l-.58-1.54s.39,.03,.98,.09c.08,0,.16,.01,.24,.02,.36,.03,.79,.07,1.23,.1l.5,.04c.1,0,.2,.01,.3,.02,1.19,.09,2.33,.15,2.67,.09Z"/><path class="d" d="M77.21,104.4c-.12,.04-.26,.08-.42,.13-1.1,.26-2.17,.47-3.19,.66-.4,.07-.8,.14-1.19,.2-.02,0-.04,0-.06,0-6.4,.99-11.37,.68-14.9,.05-.01,0-.03,0-.06,0l-.27-.06s-.08-.02-.1-.03h0c-2.08-.52-4.05-1.16-5.92-1.88,0,0-.01,0-.01,0-19.06-7.45-27.26-25.29-23.76-44.94,3.15-17.76,13.21-31.42,26.65-42.63h0s.07-.07,.21-.18c.04-.03,.08-.08,.14-.12,.06-.05,.11-.09,.17-.14,1.86-1.58,8.55-7.01,14.54-9.4-.1,.08-.98,.77-2.32,1.83-1.85,1.47-4.59,3.68-7.38,6.03-.03,.03-.06,.05-.09,.08-2.63,2.03-5.08,4.23-7.36,6.57-.9,.87-1.65,1.66-2.2,2.32h0s-.14,.17-.32,.37c-.09,.09-.17,.19-.24,.28-1.71,1.92-3.32,3.92-4.84,5.99-.15,.21-.31,.42-.47,.64-1.95,2.7-3.77,5.53-5.47,8.45,0,0,0,0,0,0-.02,.03-.08,.14-.18,.3-.05,.08-.1,.17-.17,.28-.05,.08-.1,.18-.16,.28-.03,.06-.07,.12-.1,.19-.04,.06-.08,.12-.11,.19-.46,.86-1.05,2.05-1.44,3.24,.03-.11,.05-.21,.08-.32-.11,.32-.2,.63-.28,.93-.03,.14-.06,.28-.08,.42-.01,.04-.02,.08-.02,.12h0c-.03,.17-.06,.35-.08,.51h0c0,.06-.01,.11-.01,.16,0-.05,.01-.1,.02-.16,.29-.3,9.62-10.07,21.07-10.75-15.59,10.01-22.82,23.83-18.22,41.86,2.89,11.35,8.93,19.34,18,23.87,.29,.15,.58,.29,.88,.43,4.14,1.93,8.9,3.17,14.24,3.69,0,0,.39,.03,.98,.09,.08,0,.16,.01,.24,.02,.36,.03,.79,.07,1.23,.1l.5,.04c.1,0,.2,.01,.3,.02-.04,.03-.08,.06-.12,.09-.04,.03-.09,.06-.13,.1l2.19,.07h.26Z"/><path class="d" d="M70.89,79.74c-.08-.11-.17-.22-.25-.34-1.41-1.9-2.85-4.35-4.07-7.39,1.02,2.48,2.34,4.84,3.89,7.1,.14,.21,.29,.42,.43,.63Z"/><path class="d" d="M76.17,84.94c-.33-.35-.69-.85-1.05-1.44l1.05,1.44Z"/><path class="d" d="M27.42,101.99s-1.32,5.25-2.45,6.86l.82-5.56,1.64-1.3Z"/><path class="d" d="M21.12,101.99c-.23-.47-.48-.93-.75-1.39,0,0,0-.02-.03-.06-.01-.03-.04-.08-.08-.12-.34-.55-.71-1.09-1.1-1.61,.85,1.04,1.58,2.14,1.96,3.18Z"/><path class="d" d="M163.5,113.63c-2.29-8.54,7.4-12.72,11.13-18.76h.01c.23-.34,.42-.68,.59-1.02,.07-.12,.13-.26,.19-.39,.01-.03,.03-.06,.03-.1,.8-2.01,.76-3.94,.58-5.24-.01-.12-.03-.23-.06-.33-.13-.79-.3-1.27-.3-1.27-1.32,3.48-4.94,6.88-7.02,8.62,0,0-.05,.03-.14,.11-.03,.02-.06,.05-.1,.08-.1,.08-.19,.16-.27,.23-.05,.04-.1,.09-.17,.14-.01,0-.03,.02-.05,.03-.96,.81-2.7,2.37-4.12,4.1-.01,.01-.02,.03-.03,.04-.39,.52-.76,1.06-1.1,1.61-.04,.05-.07,.09-.08,.12-.02,.03-.03,.06-.03,.06-.28,.46-.53,.92-.75,1.39,0,0,0,.02-.01,.03-1.62,3.42-1.77,7.2,1.69,10.55Z"/><path class="d" d="M179.34,97.52s-.8,2.06-4.46,3.55c0,0,5.38,1.3,4.46-3.55Z"/><path class="d" d="M181.91,73.16s-.39,3.36-2.02,5.03c-1.5,1.54-2.42,3.84-1.87,5.56,0,0,.54-2.24,2.98-4.1,2.02-1.55,1.61-5.03,.91-6.48Z"/><path class="d" d="M4.6,98.22s.8,2.06,4.46,3.55c0,0-5.38,1.3-4.46-3.55Z"/><path class="d" d="M.57,73.78s.39,3.36,2.02,5.03c1.5,1.54,2.42,3.84,1.87,5.56,0,0-.54-2.24-2.98-4.1-2.02-1.55-1.61-5.03-.91-6.48Z"/></g><g><path class="d" d="M.05,123.95c0-2.41,.03-3.78,.09-4.1,.33-1.22,1.19-1.87,2.59-1.96,.45-.03,2.74-.09,6.87-.18,3.09,0,5.65,.67,7.67,2.01,2.65,1.75,3.95,4.43,3.92,8.03-.06,2.17-.76,4.17-2.1,6s-3.08,3-5.22,3.5c-1.01,.27-3.48,.4-7.4,.4h-1.43c0,.86,.01,2.22,.04,4.08,.03,1.86,.04,3.34,.04,4.44,0,1.49-.86,2.23-2.59,2.23-.8,0-1.42-.19-1.85-.56-.43-.37-.65-.87-.65-1.49,.03-1.9,.05-4.72,.07-8.45,.01-3.73,.02-6.59,.02-8.59,0-1.78-.03-3.57-.09-5.35Zm5.06,7.34c.01,.82,.02,1.45,.02,1.9h2.14c2.5,.06,4.24-.04,5.22-.31,1.16-.27,2.08-.92,2.77-1.96,.68-1.04,1.04-2.19,1.07-3.43,.03-2.11-.8-3.61-2.5-4.5-1.1-.56-2.6-.85-4.5-.85-2.23,0-3.66,.01-4.28,.04,0,.48,0,1.55,.02,3.23,.01,1.68,.02,3.04,.02,4.08,0,.39,0,.99,.02,1.81Z"/><path class="d" d="M50.58,146.16c0,1.46-.86,2.19-2.59,2.19s-2.5-.73-2.5-2.19v-3.75l-.04-6.65c-1.49,0-3.81,.01-6.98,.04-3.17,.03-5.57,.04-7.2,.04l.09,10.44c0,1.37-.88,2.05-2.63,2.05-1.64,0-2.45-.7-2.45-2.1,0-1.19,.02-3.64,.07-7.36,.04-3.72,.05-6.59,.02-8.61l-.18-10.21c0-1.52,.88-2.27,2.63-2.27,1.61,0,2.41,.64,2.41,1.92v4.73c0,2.23,.01,4.52,.04,6.87,.03,0,.5,0,1.41,.02,.91,.02,1.87,.02,2.88,.02,.77,0,2.04,0,3.81-.02,1.77-.01,3.05-.02,3.86-.02l2.28-.04c0-1.34,0-3.33-.02-5.98s-.02-4.37-.02-5.17c.03-1.64,.88-2.45,2.54-2.45s2.45,.8,2.45,2.41c0,4.88-.01,9.26-.04,13.16l.18,12.93Z"/><path class="d" d="M81.58,121.81c2.88,2.85,4.33,6.47,4.33,10.84s-1.41,8.23-4.21,11.31c-2.81,3.08-6.34,4.62-10.59,4.62-3.87,0-7.26-1.38-10.19-4.13s-4.39-6.33-4.39-10.73c0-4.79,1.49-8.7,4.48-11.73,2.99-3.03,6.4-4.52,10.24-4.46,4.01,0,7.46,1.43,10.35,4.28Zm-3.66,3.26c-1.99-1.99-4.36-2.99-7.09-2.99-2.56,0-4.76,1.06-6.6,3.19-1.84,2.13-2.76,4.79-2.76,8.01s.95,5.71,2.85,7.67c1.9,1.96,4.25,2.94,7.05,2.94s4.95-1.11,6.82-3.34c1.87-2.23,2.79-4.83,2.76-7.81-.03-3.12-1.04-5.68-3.03-7.67Z"/><path class="d" d="M95.15,117.84c.86,0,1.52,.01,1.96,.04,2.14,0,4.4-.01,6.78-.04,2.38-.03,3.79-.04,4.24-.04,1.61,0,2.41,.67,2.41,2.01,.06,1.25-.4,1.99-1.38,2.23-.65,.03-4.09,.04-10.3,.04h-1.96v4.28l-.04,4.19v.58h1.78c1.43,0,3.84-.04,7.23-.13,.95,0,1.65,.14,2.1,.42,.45,.28,.65,.85,.62,1.72,0,1.4-.77,2.1-2.32,2.1-.68,0-2.3,0-4.84,.02-2.54,.02-4.1,.02-4.66,.02-.03,.59-.04,1.55-.04,2.85,0,.59,0,1.53-.02,2.81-.01,1.28-.02,2.23-.02,2.85,1.19,.03,4.58,.01,10.17-.04,1.19-.06,1.92-.09,2.19-.09,1.31,0,1.96,.73,1.96,2.19,0,1.55-.83,2.33-2.5,2.36h-12c-1.87,0-3.11-.17-3.72-.51-.61-.34-.94-1.11-1-2.3v-1.65s0-.27,.02-.71c.01-.45,.03-1.07,.04-1.87,.01-.8,.03-1.7,.04-2.7s.03-2.17,.04-3.52c.01-1.35,.02-2.68,.02-3.99,0-1.19,0-2.99,.02-5.4s.02-4.22,.02-5.44c.09-1.52,1.14-2.27,3.17-2.27Z"/><path class="d" d="M119.01,148.3c-1.7,0-2.56-.74-2.59-2.23,0-1.81,.01-5.53,.04-11.15v-14.9c0-.68,.3-1.23,.89-1.63s1.29-.6,2.1-.6c.65,0,1.21,.19,1.67,.56s.96,.93,1.49,1.67l10.39,14.67,3.57,5.08c-.06-3.09-.09-6.11-.09-9.05l-.09-9.81c-.03-1.04,.14-1.82,.51-2.34,.37-.52,1.05-.78,2.03-.78,1.58,0,2.36,.95,2.36,2.85,0,1.64,0,4.13-.02,7.49s-.02,5.84-.02,7.45c.06,3.21,.09,6.65,.09,10.3,0,.71-.28,1.29-.85,1.72-.57,.43-1.26,.65-2.1,.65-.62,0-1.14-.16-1.54-.49s-.9-.89-1.49-1.69l-14.18-20.29c0,.92,.06,7.51,.18,19.76,0,1.84-.79,2.77-2.36,2.77Z"/><path class="d" d="M149.12,120.02c0-.8,.25-1.4,.74-1.78,.49-.39,1.11-.58,1.85-.58s1.29,.19,1.74,.56c.45,.37,.67,.9,.67,1.58v10.84c0,.71,0,1.93-.02,3.66s-.02,2.85-.02,3.39l.04,8.16c.03,.83-.19,1.45-.65,1.85-.46,.4-1.08,.6-1.85,.6s-1.35-.19-1.83-.58c-.48-.39-.71-.97-.71-1.74,0-.36,0-.99,.02-1.9,.01-.91,.02-1.6,.02-2.07l.09-12.22c0-1.34-.03-4.59-.09-9.77Z"/><path class="d" d="M170.89,138.13l-6.51,8.92c-.62,.83-1.34,1.25-2.14,1.25-.65,0-1.26-.23-1.81-.69-.55-.46-.83-.99-.83-1.58,0-.62,.24-1.23,.71-1.83l9.05-11.64c-.15-.21-2.97-3.76-8.47-10.66-.51-.65-.76-1.25-.76-1.78,0-.59,.28-1.14,.85-1.63,.57-.49,1.17-.74,1.83-.74,.8,0,1.55,.46,2.23,1.38l7.4,9.9,7.54-10.04c.65-.86,1.4-1.29,2.23-1.29,.68,0,1.29,.24,1.81,.71s.78,1,.78,1.56c0,.51-.21,1.04-.62,1.61l-8.7,11.02,8.83,11.11c.71,.89,1.07,1.62,1.07,2.19,0,.59-.29,1.14-.87,1.63s-1.21,.74-1.9,.74c-.83,0-1.62-.52-2.36-1.56l-5.98-8.25-1.83-2.32-1.56,2.01Z"/></g><g><path class="d" d="M1.92,158.29v2.07h2.43v.94H1.92v2.16h2.74v.94H.77v-7.06h3.89v.94H1.92Z"/><path class="d" d="M7.34,163.47h2.38v.93h-3.54v-7.05h1.16v6.11Z"/><path class="d" d="M11.94,158.29v2.07h2.43v.94h-2.43v2.16h2.74v.94h-3.89v-7.06h3.89v.94h-2.74Z"/><path class="d" d="M16.3,159.01c.32-.55,.76-.98,1.31-1.28s1.15-.46,1.81-.46c.75,0,1.42,.18,2,.55,.58,.37,1.01,.89,1.27,1.57h-1.39c-.18-.37-.44-.65-.76-.83s-.7-.27-1.12-.27c-.47,0-.88,.1-1.25,.31s-.65,.51-.86,.9-.31,.85-.31,1.37,.1,.98,.31,1.37,.49,.69,.86,.91c.37,.21,.78,.32,1.25,.32,.43,0,.8-.09,1.12-.27s.58-.46,.76-.83h1.39c-.26,.68-.69,1.2-1.27,1.56-.58,.37-1.25,.55-2,.55-.66,0-1.27-.15-1.82-.46s-.98-.74-1.3-1.28c-.32-.55-.48-1.17-.48-1.86s.16-1.31,.48-1.86Z"/><path class="d" d="M28.69,157.35v.94h-1.88v6.1h-1.16v-6.1h-1.89v-.94h4.92Z"/><path class="d" d="M33.62,164.4l-1.62-2.82h-.88v2.82h-1.16v-7.05h2.43c.54,0,1,.09,1.37,.28,.38,.19,.66,.44,.84,.76,.19,.32,.28,.67,.28,1.06,0,.46-.13,.88-.4,1.25-.27,.38-.68,.63-1.23,.77l1.74,2.92h-1.38Zm-2.5-3.74h1.28c.43,0,.76-.11,.98-.32s.33-.51,.33-.87-.11-.65-.33-.86c-.22-.21-.54-.31-.98-.31h-1.28v2.36Z"/><path class="d" d="M37.88,164.01c-.55-.31-.99-.74-1.31-1.29-.32-.55-.48-1.17-.48-1.86s.16-1.31,.48-1.86c.32-.55,.76-.98,1.31-1.28s1.15-.46,1.81-.46,1.27,.15,1.82,.46c.55,.31,.99,.74,1.3,1.28,.32,.55,.48,1.17,.48,1.86s-.16,1.31-.48,1.86c-.32,.55-.75,.98-1.3,1.29-.55,.31-1.16,.46-1.82,.46s-1.26-.15-1.81-.46Zm3.06-.86c.37-.21,.65-.52,.86-.91s.31-.85,.31-1.37-.1-.98-.31-1.37-.49-.69-.86-.9-.78-.31-1.25-.31-.88,.1-1.25,.31-.65,.51-.86,.9-.31,.85-.31,1.37,.1,.98,.31,1.37,.49,.7,.86,.91,.78,.32,1.25,.32,.88-.11,1.25-.32Z"/><path class="d" d="M45.68,158.29v2.07h2.43v.94h-2.43v2.16h2.74v.94h-3.89v-7.06h3.89v.94h-2.74Z"/><path class="d" d="M50.98,164.22c-.38-.17-.68-.4-.89-.71-.22-.3-.33-.66-.33-1.06h1.24c.03,.3,.15,.55,.36,.75,.21,.2,.51,.29,.9,.29s.71-.1,.93-.29c.22-.19,.33-.44,.33-.75,0-.24-.07-.43-.21-.58-.14-.15-.31-.26-.52-.35-.21-.08-.49-.17-.86-.26-.46-.12-.83-.24-1.12-.37-.29-.12-.53-.32-.73-.58-.2-.26-.3-.61-.3-1.05,0-.41,.1-.76,.3-1.06,.2-.3,.49-.54,.85-.7,.37-.16,.79-.24,1.27-.24,.68,0,1.24,.17,1.68,.51,.44,.34,.68,.81,.73,1.4h-1.28c-.02-.26-.14-.48-.36-.66-.22-.18-.52-.27-.88-.27-.33,0-.6,.08-.81,.25-.21,.17-.31,.41-.31,.73,0,.22,.07,.39,.2,.53s.3,.25,.5,.33c.2,.08,.48,.17,.83,.26,.47,.13,.85,.26,1.14,.39s.54,.33,.75,.59,.31,.62,.31,1.07c0,.36-.1,.7-.29,1.01-.19,.32-.47,.57-.84,.77-.37,.19-.8,.29-1.3,.29-.47,0-.9-.08-1.28-.25Z"/><path class="d" d="M60.72,157.35v.94h-1.88v6.1h-1.16v-6.1h-1.89v-.94h4.92Z"/><path class="d" d="M63.14,158.29v2.07h2.43v.94h-2.43v2.16h2.74v.94h-3.89v-7.06h3.89v.94h-2.74Zm1.78-2.44l-2.24,1.1v-.85l2.24-1.24v.98Z"/><path class="d" d="M71.95,157.35v.94h-1.88v6.1h-1.16v-6.1h-1.89v-.94h4.92Z"/><path class="d" d="M74.38,157.35v7.05h-1.16v-7.05h1.16Z"/><path class="d" d="M76.09,159.01c.32-.55,.76-.98,1.31-1.28s1.15-.46,1.81-.46c.75,0,1.42,.18,2,.55,.58,.37,1.01,.89,1.27,1.57h-1.39c-.18-.37-.44-.65-.76-.83s-.7-.27-1.12-.27c-.47,0-.88,.1-1.25,.31s-.65,.51-.86,.9-.31,.85-.31,1.37,.1,.98,.31,1.37,.49,.69,.86,.91c.37,.21,.78,.32,1.25,.32,.43,0,.8-.09,1.12-.27s.58-.46,.76-.83h1.39c-.26,.68-.69,1.2-1.27,1.56-.58,.37-1.25,.55-2,.55-.66,0-1.27-.15-1.82-.46s-.98-.74-1.3-1.28c-.32-.55-.48-1.17-.48-1.86s.16-1.31,.48-1.86Z"/><path class="d" d="M88.19,162.96h-2.95l-.51,1.44h-1.21l2.53-7.06h1.34l2.53,7.06h-1.22l-.51-1.44Zm-.33-.94l-1.15-3.28-1.16,3.28h2.3Z"/><path class="d" d="M99.07,157.35l-2.33,4.49v2.56h-1.16v-2.56l-2.34-4.49h1.29l1.63,3.46,1.63-3.46h1.28Z"/><path class="d" d="M103.98,158.29v2.07h2.43v.94h-2.43v2.16h2.74v.94h-3.89v-7.06h3.89v.94h-2.74Z"/><path class="d" d="M109.39,163.47h2.38v.93h-3.54v-7.05h1.16v6.11Z"/><path class="d" d="M114,158.29v2.07h2.43v.94h-2.43v2.16h2.74v.94h-3.89v-7.06h3.89v.94h-2.74Z"/><path class="d" d="M118.35,159.01c.32-.55,.76-.98,1.31-1.28s1.15-.46,1.81-.46c.75,0,1.42,.18,2,.55,.58,.37,1.01,.89,1.27,1.57h-1.39c-.18-.37-.44-.65-.76-.83s-.7-.27-1.12-.27c-.47,0-.88,.1-1.25,.31s-.65,.51-.86,.9-.31,.85-.31,1.37,.1,.98,.31,1.37,.49,.69,.86,.91c.37,.21,.78,.32,1.25,.32,.43,0,.8-.09,1.12-.27s.58-.46,.76-.83h1.39c-.26,.68-.69,1.2-1.27,1.56-.58,.37-1.25,.55-2,.55-.66,0-1.27-.15-1.82-.46s-.98-.74-1.3-1.28c-.32-.55-.48-1.17-.48-1.86s.16-1.31,.48-1.86Z"/><path class="d" d="M130.75,157.35v.94h-1.88v6.1h-1.16v-6.1h-1.89v-.94h4.92Z"/><path class="d" d="M135.68,164.4l-1.62-2.82h-.88v2.82h-1.16v-7.05h2.43c.54,0,1,.09,1.37,.28,.38,.19,.66,.44,.84,.76,.19,.32,.28,.67,.28,1.06,0,.46-.13,.88-.4,1.25-.27,.38-.68,.63-1.23,.77l1.74,2.92h-1.38Zm-2.5-3.74h1.28c.43,0,.76-.11,.98-.32s.33-.51,.33-.87-.11-.65-.33-.86c-.22-.21-.54-.31-.98-.31h-1.28v2.36Z"/><path class="d" d="M139.93,164.01c-.55-.31-.99-.74-1.31-1.29-.32-.55-.48-1.17-.48-1.86s.16-1.31,.48-1.86c.32-.55,.76-.98,1.31-1.28s1.15-.46,1.81-.46,1.27,.15,1.82,.46c.55,.31,.99,.74,1.3,1.28,.32,.55,.48,1.17,.48,1.86s-.16,1.31-.48,1.86c-.32,.55-.75,.98-1.3,1.29-.55,.31-1.16,.46-1.82,.46s-1.26-.15-1.81-.46Zm3.06-.86c.37-.21,.65-.52,.86-.91s.31-.85,.31-1.37-.1-.98-.31-1.37-.49-.69-.86-.9-.78-.31-1.25-.31-.88,.1-1.25,.31-.65,.51-.86,.9-.31,.85-.31,1.37,.1,.98,.31,1.37,.49,.7,.86,.91,.78,.32,1.25,.32,.88-.11,1.25-.32Z"/><path class="d" d="M151.13,157.35v.94h-1.88v6.1h-1.16v-6.1h-1.89v-.94h4.92Z"/><path class="d" d="M153.55,158.29v2.07h2.43v.94h-2.43v2.16h2.74v.94h-3.89v-7.06h3.89v.94h-2.74Z"/><path class="d" d="M161.47,164.4l-1.62-2.82h-.88v2.82h-1.16v-7.05h2.43c.54,0,1,.09,1.37,.28,.38,.19,.66,.44,.84,.76,.19,.32,.28,.67,.28,1.06,0,.46-.13,.88-.4,1.25-.27,.38-.68,.63-1.23,.77l1.74,2.92h-1.38Zm-2.5-3.74h1.28c.43,0,.76-.11,.98-.32s.33-.51,.33-.87-.11-.65-.33-.86c-.22-.21-.54-.31-.98-.31h-1.28v2.36Z"/><path class="d" d="M168.57,162.96h-2.95l-.51,1.44h-1.21l2.53-7.06h1.34l2.53,7.06h-1.22l-.51-1.44Zm-.33-.94l-1.15-3.28-1.16,3.28h2.3Z"/><path class="d" d="M176.17,160.47c-.17,.32-.44,.58-.81,.78s-.85,.3-1.43,.3h-1.28v2.86h-1.16v-7.05h2.43c.54,0,1,.09,1.37,.28,.38,.19,.66,.44,.84,.76,.19,.32,.28,.67,.28,1.06,0,.36-.08,.7-.25,1.01Zm-1.26-.17c.22-.2,.33-.48,.33-.85,0-.77-.44-1.16-1.31-1.16h-1.28v2.3h1.28c.44,0,.77-.1,.98-.3Z"/><path class="d" d="M178.78,157.35v7.05h-1.16v-7.05h1.16Z"/><path class="d" d="M184.65,162.96h-2.95l-.51,1.44h-1.21l2.53-7.06h1.34l2.53,7.06h-1.22l-.51-1.44Zm-.33-.94l-1.15-3.28-1.16,3.28h2.3Z"/></g></g></g></svg>