<?xml version="1.0" encoding="UTF-8"?><svg xmlns="http://www.w3.org/2000/svg" viewBox="0 0 75.3 50.04"><defs><style>.d{fill:#fff;}.e{fill:#3f3f3f;}</style></defs><g id="a"/><g id="b"><g id="c"><path class="e" d="M26,40.94h45.1c2.3,0,4.2,1.9,4.2,4.2v.7c0,2.3-1.9,4.2-4.2,4.2H26c-2.3,0-4.2-1.9-4.2-4.2v-.7c0-2.3,1.9-4.2,4.2-4.2Z"/><path class="d" d="M4.2,40.94h31.2c2.3,0,4.2,1.9,4.2,4.2v.7c0,2.3-1.9,4.2-4.2,4.2H4.2c-2.3,0-4.2-1.8-4.2-4.2v-.7c0-2.3,1.9-4.2,4.2-4.2Z"/><g><g><path class="d" d="M43.88,16.04h-.03c-.06,.03-.13,.04-.19,.06,.07-.02,.14-.04,.22-.06Z"/><path class="d" d="M44.05,15.99s-.07,.02-.11,.03c-.02,0-.04,.01-.06,.02,.05-.02,.11-.03,.16-.05Z"/><path class="d" d="M47.4,14.26h0c-.13,.11-.25,.2-.39,.29h0c.14-.09,.27-.19,.41-.29Z"/><path class="d" d="M30.71,3.71c-.14,.14-.27,.28-.4,.42,.1-.12,.23-.26,.4-.42Z"/><path class="d" d="M27.81,8.07h0v.03s0-.02,0-.03Z"/><path class="d" d="M27.84,7.89c.01-.05,.03-.11,.05-.17,0,.02,0,.04-.01,.06h0c-.02,.06-.04,.12-.05,.18h0s0-.05,.01-.07Z"/><path class="d" d="M46.16,15.95c-.05,.04-.11,.07-.16,.11-.13,.08-.27,.15-.39,.22-.1,.05-.19,.1-.28,.15,.29-.15,.57-.31,.84-.47Z"/><path class="d" d="M51.84,8.93c-.05,.17-.1,.34-.15,.51h0v.03c-.08,.21-.15,.41-.24,.61h0c-.21,.51-.46,.99-.74,1.44-.05,.08-.1,.15-.14,.23,.04-.06,.08-.12,.11-.15-.5,.78-1.23,1.73-2.27,2.74l-.1,.1c-.23,.22-.46,.43-.69,.62-.04,.04-.09,.07-.14,.11-.04,.04-.09,.07-.14,.11-.07,.06-.15,.11-.22,.17l-.02,.02c-.06,.05-.13,.09-.19,.14-2.41,1.7-4.42,1.7-4.43,1.7,.08-.01,.15-.03,.23-.04h.01c.47-.1,.92-.24,1.35-.41,0,0,.02,0,.03-.01,.17-.06,.34-.14,.51-.21,3.37-1.54,5.29-4.78,5.51-5.16h0s.02-.03,.03-.05l.02-.03c-.24,.25-.56,.46-.9,.63-.24,.1-.48,.2-.72,.3h0c-1.2,.42-2.46,.5-2.46,.5,2.92-1.39,4.51-3.62,4.1-6.88-.36-2.88-1.96-4.73-4.65-5.47,0,0-.02,0-.03,0-.16-.05-.32-.09-.48-.12-.34-.06-.62-.09-.62-.09V.07h.02c.17-.03,1.47-.2,2.7,.15,0,0,.02,0,.02,0,.12,.03,.23,.07,.35,.12,.01,0,.03,0,.04,.01h0c.46,.17,.9,.39,1.33,.65,2.71,1.59,3.87,4.71,3,7.92Z"/><path class="d" d="M50.02,11.52c-.06,.09-.25,.39-.59,.79h0c-.05,.06-.1,.12-.15,.18,.05-.06,.09-.11,.13-.17,.28-.35,.48-.63,.6-.8Z"/><path class="d" d="M45.48,.44c-.16-.04-.32-.08-.48-.12,.16,.03,.32,.07,.48,.12Z"/><path class="d" d="M52.78,9.88c.59,1.01,.72,2.01,.61,3.07-.16,1.51-.97,2.67-2.08,3.59-.78,.65-1.2,1.45-1.46,2.39-.04,.13-.06,.26-.12,.51-.58-1.35-.98-2.64-.53-3.99,.17-.52,.54-1.06,.97-1.41,1.3-1.04,2.09-2.35,2.46-3.94,0-.04,.05-.08,.14-.22Z"/><path class="d" d="M26.05,19.2h0c-.08,.21-.18,.38-.2,.44,0,0,0-.34-.1-.73-1.09-3.47-5.21-3.82-2.91-9.12,1.09,5.11,5.18,3.52,3.2,9.42Z"/><path class="d" d="M24.86,20.3c.41-1.54-1.33-2.29-2.01-3.38h0c-.04-.06-.08-.12-.11-.18-.01-.02-.02-.05-.03-.07v-.02c-.15-.36-.14-.71-.11-.94,0-.02,0-.04,0-.06,.02-.14,.05-.23,.05-.23,.24,.63,.89,1.24,1.27,1.55l.02,.02h.02l.05,.05,.03,.02h0c.17,.15,.49,.43,.74,.75h0c.07,.1,.14,.2,.2,.3,0,0,.01,.02,.01,.02h0c.05,.09,.09,.18,.14,.26h0c.29,.62,.32,1.3-.31,1.91Z"/><path class="d" d="M22.7,16.65c-.16-.37-.14-.73-.1-.94-.03,.23-.04,.58,.1,.94Z"/><path class="d" d="M36.21,4.85s.02-.02,.03-.02c-.03,.02-.05,.05-.08,.07,.02-.02,.03-.03,.05-.05Z"/><path class="d" d="M37.17,3.65c-.39,.16-.74,.34-.8,.37,.1-.06,.21-.11,.31-.17,.16-.08,.32-.14,.49-.2Z"/><path class="d" d="M37.76,3.59c-.13,.11-.26,.23-.41,.33-.09,.06-.17,.13-.26,.19,.25-.2,.48-.39,.66-.53h0Z"/><path class="d" d="M30.4,8.57h0v0Z"/><path class="d" d="M30.7,8.15c-.16,.22-.26,.37-.3,.42,.06-.09,.17-.24,.3-.42Z"/><path class="d" d="M50.13,11.36h0l-.02,.04h0v.02s-.04,.04-.06,.07h0c-.12,.18-.34,.47-.63,.84h-.01l-.02,.04s-.08,.1-.12,.15c0,0-.02,.02-.02,.03-.58,.64-1.18,1.21-1.83,1.71h0c-.13,.1-.27,.2-.41,.3h0s-.05,.03-.08,.05c-.11,.05-.22,.11-.32,.18-.79,.5-1.61,.91-2.47,1.19-.02,0-.04,.01-.06,.02h0c-.06,.02-.11,.03-.16,.05-.07,.02-.14,.04-.22,.06-.77,.2-1.58,.29-2.42,.24-1.43-.08-2.8-.41-3.96-1.35-1.39-1.13-1.78-2.61-1.55-4.31,.21-1.56,.9-2.92,1.89-4.13,.11-.13,.2-.28,.35-.48-1.2,.35-2.83,2.2-3.46,3.89-.51,1.36-.61,2.71-.15,4.02h0c.1,.28,.22,.55,.36,.82h0c.04,.09,.09,.18,.14,.26v.02c.08,.11,.14,.2,.2,.26-.03-.02-.47-.3-.95-.94-.03-.04-.05-.08-.08-.11-.28-.41-.52-.83-.7-1.28-.01-.03-.02-.06-.04-.09h0c-.22-.56-.35-1.14-.38-1.76-.06-1.26,.31-2.44,.94-3.52,.61-1.04,1.39-1.93,2.27-2.72,.03-.02,.05-.05,.08-.07,.24-.2,.54-.45,.82-.68,.01,0,.02-.02,.04-.03,.08-.06,.17-.13,.26-.19,.14-.1,.27-.22,.41-.33h0c.18-.15,.29-.24,.29-.24-.21,.03-.55,.16-.87,.3h0c-.17,.06-.33,.13-.49,.21-.11,.05-.21,.11-.31,.17h0c-1.19,.65-2.28,1.44-3.31,2.3-.04,.03-.08,.07-.12,.1-.08,.06-.15,.13-.23,.19-.04,.03-.08,.07-.12,.1-.54,.46-1.1,.93-1.52,1.29-.39,.33-.66,.56-.69,.58h0v-.02c.04-.05,.15-.2,.31-.42h0c.59-.82,1.91-2.55,3.21-3.8,.42-.41,.88-.78,1.36-1.11h0c.8-.55,1.68-.98,2.63-1.29,1.87-.62,3.62-.51,5.14,.83,2.06,.22,3.49,1.69,3.36,3.56-.27-.1-.52-.19-.75-.29-2.83-1.21-5.41,.53-6.09,2.81-.67,2.26,.25,5.05,2.96,5.76,.25,.06,.5,.11,.74,.14,2.62,.24,5.25-1.36,6.87-3.39Z"/><path class="d" d="M37.06,4.15c-.28,.23-.58,.47-.82,.68,.27-.23,.54-.46,.82-.68Z"/><path class="d" d="M46.99,14.56c-.86,.6-1.8,1.07-2.88,1.41,.86-.27,1.68-.68,2.47-1.19,.1-.06,.21-.12,.32-.18,.03-.01,.05-.03,.08-.04h0Z"/><path class="d" d="M50.14,11.36s-.01,.02-.02,.03c0,.01-.02,.03-.03,.04h0c-.03,.06-.08,.12-.14,.2l-.02,.03-.02,.03c-.16,.22-.38,.5-.57,.74h-.01l-.02,.03s-.02,.02-.02,.03l-.03,.04c-.08,.09-.14,.17-.2,.23,.06-.07,.11-.14,.17-.2,0,0,.02-.02,.02-.03,.04-.05,.08-.1,.12-.15l.02-.02h.01c.3-.39,.51-.68,.63-.84h0s.04-.06,.05-.08h0v-.02h0l.02-.03h0v-.02h0Z"/><path class="d" d="M35.23,18.83h-.4l.02-.03c.17,.01,.3,.02,.37,.03Z"/><path class="d" d="M50.12,11.39s-.02,.03-.03,.04v-.02h.02v-.02Z"/><path class="d" d="M30.21,4.24c-.16,.19-.5,.59-.87,1.08,.27-.37,.56-.73,.87-1.08Z"/><path class="d" d="M27.81,8.07h0v.03s0-.02,0-.03Z"/><path class="d" d="M27.89,7.72s0,.04-.01,.06h0c-.02,.06-.04,.12-.05,.18v.02s0-.01,0-.02c0-.02,0-.05,.01-.07,.01-.05,.03-.11,.05-.17Z"/><path class="d" d="M35.36,18.8s-.03,.01-.08,.03h0s-.05,.01-.08,.02c-.2,.05-.39,.08-.58,.12-.07,.01-.14,.02-.21,.04h-.01l-.1-.28s.07,0,.18,.02h.04c.06,0,.14,.02,.22,.02h.14c.21,.03,.42,.04,.48,.03Z"/><path class="d" d="M35.28,18.83s-.05,.01-.08,.02c-.2,.05-.39,.08-.58,.12-.07,.01-.14,.02-.21,.04h-.01c-1.15,.18-2.05,.12-2.69,0h-.06l-.02-.02h0c-.38-.09-.73-.21-1.07-.34h0c-3.44-1.35-4.92-4.56-4.29-8.11,.57-3.2,2.38-5.67,4.81-7.69h0s.01-.01,.04-.03c0,0,.01-.01,.02-.02l.03-.02c.34-.28,1.54-1.26,2.62-1.7-.02,.01-.18,.14-.42,.33-.33,.27-.83,.66-1.33,1.09h-.02c-.47,.38-.92,.78-1.33,1.2-.16,.16-.3,.3-.4,.42h0s-.02,.03-.06,.07c-.02,.02-.03,.03-.04,.05-.31,.35-.6,.71-.87,1.08-.03,.04-.06,.08-.08,.11-.35,.49-.68,1-.99,1.52h0l-.03,.06s-.02,.03-.03,.05c0,.01-.02,.03-.03,.05l-.02,.03s-.01,.02-.02,.03c-.08,.15-.19,.37-.26,.59,0-.02,0-.04,.01-.06-.02,.06-.04,.11-.05,.17,0,.02-.01,.05-.01,.07,0,0,0,.01,0,.02h0s0,.06-.01,.09h0s0,.02,0,.03v-.03c.06-.05,1.74-1.82,3.8-1.94-2.81,1.81-4.12,4.3-3.29,7.55,.52,2.05,1.61,3.49,3.25,4.31,.05,.03,.1,.05,.16,.08,.75,.35,1.6,.57,2.57,.67,0,0,.07,0,.18,.02h.04c.06,0,.14,.02,.22,.02h.14l-.02,.03-.02,.02h.44Z"/><path class="d" d="M34.14,14.38s-.03-.04-.05-.06c-.25-.34-.51-.78-.73-1.33,.18,.45,.42,.87,.7,1.28,.03,.04,.05,.08,.08,.11Z"/><path class="d" d="M35.09,15.32c-.06-.06-.12-.15-.19-.26l.19,.26Z"/><path class="d" d="M26.3,18.4s-.24,.95-.44,1.24l.15-1,.3-.23Z"/><path class="d" d="M25.16,18.4c-.04-.08-.09-.17-.14-.25h0s0-.02-.01-.03c-.06-.1-.13-.2-.2-.29,.15,.19,.29,.39,.35,.57Z"/><path class="d" d="M50.84,20.5c-.41-1.54,1.33-2.29,2.01-3.38h0c.04-.06,.08-.12,.11-.18,.01-.02,.02-.05,.03-.07v-.02c.15-.36,.14-.71,.11-.94,0-.02,0-.04,0-.06-.02-.14-.05-.23-.05-.23-.24,.63-.89,1.24-1.27,1.55l-.02,.02h-.02l-.05,.05-.03,.02h0c-.17,.15-.49,.43-.74,.75h0c-.07,.1-.14,.2-.2,.3,0,0-.01,.02-.01,.02h0c-.05,.09-.09,.18-.14,.26h0c-.29,.62-.32,1.3,.31,1.91Z"/><path class="d" d="M53.7,17.59s-.14,.37-.8,.64c0,0,.97,.23,.8-.64Z"/><path class="d" d="M54.16,13.2s-.07,.61-.36,.91c-.27,.28-.44,.69-.34,1,0,0,.1-.4,.54-.74,.36-.28,.29-.91,.16-1.17Z"/><path class="d" d="M22.18,17.72s.14,.37,.8,.64c0,0-.97,.23-.8-.64Z"/><path class="d" d="M21.45,13.31s.07,.61,.36,.91c.27,.28,.44,.69,.34,1,0,0-.1-.4-.54-.74-.36-.28-.29-.91-.16-1.17Z"/></g><g><path class="d" d="M21.36,22.36c0-.43,0-.68,.02-.74,.06-.22,.21-.34,.47-.35,.08,0,.49-.02,1.24-.03,.56,0,1.02,.12,1.38,.36,.48,.32,.71,.8,.71,1.45-.01,.39-.14,.75-.38,1.08-.24,.33-.56,.54-.94,.63-.18,.05-.63,.07-1.34,.07h-.26c0,.16,0,.4,0,.74,0,.34,0,.6,0,.8,0,.27-.16,.4-.47,.4-.14,0-.26-.03-.33-.1-.08-.07-.12-.16-.12-.27,0-.34,0-.85,.01-1.52s0-1.19,0-1.55c0-.32,0-.64-.02-.97Zm.91,1.32c0,.15,0,.26,0,.34h.39c.45,.01,.76,0,.94-.06,.21-.05,.38-.17,.5-.35,.12-.19,.19-.39,.19-.62,0-.38-.14-.65-.45-.81-.2-.1-.47-.15-.81-.15-.4,0-.66,0-.77,0,0,.09,0,.28,0,.58,0,.3,0,.55,0,.74,0,.07,0,.18,0,.33Z"/><path class="d" d="M30.47,26.36c0,.26-.16,.39-.47,.39s-.45-.13-.45-.39v-1.87c-.28,0-.7,0-1.27,0-.57,0-1,0-1.3,0l.02,1.88c0,.25-.16,.37-.47,.37-.3,0-.44-.13-.44-.38,0-.21,0-.66,.01-1.33,0-.67,0-1.19,0-1.55l-.03-1.84c0-.27,.16-.41,.47-.41,.29,0,.43,.12,.43,.35v.85c0,.4,0,.82,0,1.24,0,0,.09,0,.25,0,.16,0,.34,0,.52,0,.14,0,.37,0,.69,0,.32,0,.55,0,.7,0h.41c0-.25,0-.61,0-1.09s0-.79,0-.93c0-.3,.16-.44,.46-.44s.44,.14,.44,.43c0,.88,0,1.67,0,2.37l.03,2.33Z"/><path class="d" d="M36.07,21.97c.52,.51,.78,1.17,.78,1.95s-.25,1.48-.76,2.04c-.51,.56-1.14,.83-1.91,.83-.7,0-1.31-.25-1.84-.74-.53-.5-.79-1.14-.79-1.93,0-.86,.27-1.57,.81-2.12s1.15-.82,1.85-.8c.72,0,1.35,.26,1.87,.77Zm-.66,.59c-.36-.36-.79-.54-1.28-.54-.46,0-.86,.19-1.19,.58-.33,.38-.5,.86-.5,1.44s.17,1.03,.51,1.38c.34,.35,.77,.53,1.27,.53s.89-.2,1.23-.6c.34-.4,.5-.87,.5-1.41,0-.56-.19-1.02-.55-1.38Z"/><path class="d" d="M38.51,21.25c.16,0,.27,0,.35,0,.39,0,.79,0,1.22,0,.43,0,.68,0,.76,0,.29,0,.43,.12,.43,.36,.01,.23-.07,.36-.25,.4-.12,0-.74,0-1.86,0h-.35v1.63h.31c.26,0,.69,0,1.3-.02,.17,0,.3,.03,.38,.08,.08,.05,.12,.15,.11,.31,0,.25-.14,.38-.42,.38-.12,0-.41,0-.87,0-.46,0-.74,0-.84,0,0,.11,0,.28,0,.51,0,.11,0,.28,0,.51,0,.23,0,.4,0,.51,.21,0,.83,0,1.83,0,.21-.01,.35-.02,.39-.02,.24,0,.35,.13,.35,.39,0,.28-.15,.42-.45,.43h-2.16c-.34,0-.56-.03-.67-.09-.11-.06-.17-.2-.18-.41v-.3s0-.05,0-.13c0-.08,0-.19,0-.34s0-.31,0-.49,0-.39,0-.64c0-.24,0-.48,0-.72,0-.21,0-.54,0-.97,0-.43,0-.76,0-.98,.02-.27,.21-.41,.57-.41Z"/><path class="d" d="M42.82,26.75c-.31,0-.46-.13-.47-.4,0-.33,0-1,0-2.01v-2.69c0-.12,.05-.22,.16-.29s.23-.11,.38-.11c.12,0,.22,.03,.3,.1,.08,.07,.17,.17,.27,.3l1.87,2.65,.64,.92c-.01-.56-.02-1.1-.02-1.63l-.02-1.77c0-.19,.03-.33,.09-.42s.19-.14,.37-.14c.28,0,.43,.17,.43,.51,0,.3,0,.75,0,1.35,0,.61,0,1.05,0,1.34,.01,.58,.02,1.2,.02,1.86,0,.13-.05,.23-.15,.31-.1,.08-.23,.12-.38,.12-.11,0-.21-.03-.28-.09s-.16-.16-.27-.31l-2.56-3.66c0,.17,.01,1.35,.03,3.56,0,.33-.14,.5-.43,.5Z"/><path class="d" d="M48.25,21.65c0-.14,.04-.25,.13-.32,.09-.07,.2-.1,.33-.1s.23,.03,.31,.1c.08,.07,.12,.16,.12,.29v1.95c0,.13,0,.35,0,.66s0,.51,0,.61v1.47c.01,.15-.03,.26-.11,.33-.08,.07-.19,.11-.33,.11s-.24-.03-.33-.1c-.09-.07-.13-.17-.13-.31,0-.06,0-.18,0-.34,0-.16,0-.29,0-.37l.02-2.2c0-.24,0-.83-.02-1.76Z"/><path class="d" d="M52.17,24.91l-1.17,1.61c-.11,.15-.24,.23-.39,.23-.12,0-.23-.04-.33-.12-.1-.08-.15-.18-.15-.29,0-.11,.04-.22,.13-.33l1.63-2.1s-.54-.68-1.53-1.92c-.09-.12-.14-.23-.14-.32,0-.11,.05-.21,.15-.29,.1-.09,.21-.13,.33-.13,.14,0,.28,.08,.4,.25l1.34,1.79,1.36-1.81c.12-.16,.25-.23,.4-.23,.12,0,.23,.04,.33,.13s.14,.18,.14,.28c0,.09-.04,.19-.11,.29l-1.57,1.99,1.59,2c.13,.16,.19,.29,.19,.39,0,.11-.05,.21-.16,.29-.1,.09-.22,.13-.34,.13-.15,0-.29-.09-.43-.28l-1.08-1.49-.33-.42-.28,.36Z"/></g><g><path class="d" d="M21.7,28.55v.37h.44v.17h-.44v.39h.49v.17h-.7v-1.27h.7v.17h-.49Z"/><path class="d" d="M22.67,29.48h.43v.17h-.64v-1.27h.21v1.1Z"/><path class="d" d="M23.5,28.55v.37h.44v.17h-.44v.39h.49v.17h-.7v-1.27h.7v.17h-.49Z"/><path class="d" d="M24.29,28.68c.06-.1,.14-.18,.24-.23s.21-.08,.33-.08c.14,0,.26,.03,.36,.1,.11,.07,.18,.16,.23,.28h-.25c-.03-.07-.08-.12-.14-.15s-.13-.05-.2-.05c-.08,0-.16,.02-.23,.06-.07,.04-.12,.09-.15,.16-.04,.07-.06,.15-.06,.25s.02,.18,.06,.25c.04,.07,.09,.13,.15,.16,.07,.04,.14,.06,.23,.06,.08,0,.14-.02,.2-.05s.1-.08,.14-.15h.25c-.05,.12-.12,.22-.23,.28-.11,.07-.23,.1-.36,.1-.12,0-.23-.03-.33-.08s-.18-.13-.24-.23c-.06-.1-.09-.21-.09-.33s.03-.24,.09-.33Z"/><path class="d" d="M26.53,28.38v.17h-.34v1.1h-.21v-1.1h-.34v-.17h.89Z"/><path class="d" d="M27.41,29.65l-.29-.51h-.16v.51h-.21v-1.27h.44c.1,0,.18,.02,.25,.05s.12,.08,.15,.14c.03,.06,.05,.12,.05,.19,0,.08-.02,.16-.07,.23-.05,.07-.12,.11-.22,.14l.31,.53h-.25Zm-.45-.67h.23c.08,0,.14-.02,.18-.06,.04-.04,.06-.09,.06-.16s-.02-.12-.06-.15c-.04-.04-.1-.06-.18-.06h-.23v.43Z"/><path class="d" d="M28.18,29.58c-.1-.06-.18-.13-.24-.23-.06-.1-.09-.21-.09-.34s.03-.24,.09-.33c.06-.1,.14-.18,.24-.23s.21-.08,.33-.08,.23,.03,.33,.08c.1,.06,.18,.13,.24,.23,.06,.1,.09,.21,.09,.33s-.03,.24-.09,.34c-.06,.1-.14,.18-.24,.23-.1,.06-.21,.08-.33,.08s-.23-.03-.33-.08Zm.55-.16c.07-.04,.12-.09,.15-.16s.06-.15,.06-.25-.02-.18-.06-.25c-.04-.07-.09-.12-.15-.16-.07-.04-.14-.06-.22-.06s-.16,.02-.23,.06c-.07,.04-.12,.09-.15,.16-.04,.07-.06,.15-.06,.25s.02,.18,.06,.25,.09,.13,.15,.16,.14,.06,.23,.06,.16-.02,.22-.06Z"/><path class="d" d="M29.59,28.55v.37h.44v.17h-.44v.39h.49v.17h-.7v-1.27h.7v.17h-.49Z"/><path class="d" d="M30.55,29.62c-.07-.03-.12-.07-.16-.13-.04-.05-.06-.12-.06-.19h.22c0,.05,.03,.1,.06,.14s.09,.05,.16,.05,.13-.02,.17-.05c.04-.03,.06-.08,.06-.13,0-.04-.01-.08-.04-.1s-.06-.05-.09-.06-.09-.03-.15-.05c-.08-.02-.15-.04-.2-.07-.05-.02-.1-.06-.13-.11-.04-.05-.05-.11-.05-.19,0-.07,.02-.14,.05-.19,.04-.05,.09-.1,.15-.13s.14-.04,.23-.04c.12,0,.22,.03,.3,.09,.08,.06,.12,.15,.13,.25h-.23s-.03-.09-.07-.12c-.04-.03-.09-.05-.16-.05-.06,0-.11,.02-.15,.05-.04,.03-.06,.07-.06,.13,0,.04,.01,.07,.04,.1s.05,.04,.09,.06,.09,.03,.15,.05c.08,.02,.15,.05,.21,.07,.05,.02,.1,.06,.14,.11,.04,.05,.06,.11,.06,.19,0,.06-.02,.13-.05,.18s-.09,.1-.15,.14-.14,.05-.23,.05c-.09,0-.16-.01-.23-.04Z"/><path class="d" d="M32.3,28.38v.17h-.34v1.1h-.21v-1.1h-.34v-.17h.89Z"/><path class="d" d="M32.74,28.55v.37h.44v.17h-.44v.39h.49v.17h-.7v-1.27h.7v.17h-.49Zm.32-.44l-.4,.2v-.15l.4-.22v.18Z"/><path class="d" d="M34.33,28.38v.17h-.34v1.1h-.21v-1.1h-.34v-.17h.89Z"/><path class="d" d="M34.77,28.38v1.27h-.21v-1.27h.21Z"/><path class="d" d="M35.08,28.68c.06-.1,.14-.18,.24-.23s.21-.08,.33-.08c.14,0,.26,.03,.36,.1,.11,.07,.18,.16,.23,.28h-.25c-.03-.07-.08-.12-.14-.15s-.13-.05-.2-.05c-.08,0-.16,.02-.23,.06-.07,.04-.12,.09-.15,.16-.04,.07-.06,.15-.06,.25s.02,.18,.06,.25c.04,.07,.09,.13,.15,.16,.07,.04,.14,.06,.23,.06,.08,0,.14-.02,.2-.05s.1-.08,.14-.15h.25c-.05,.12-.12,.22-.23,.28-.11,.07-.23,.1-.36,.1-.12,0-.23-.03-.33-.08s-.18-.13-.24-.23c-.06-.1-.09-.21-.09-.33s.03-.24,.09-.33Z"/><path class="d" d="M37.26,29.39h-.53l-.09,.26h-.22l.46-1.27h.24l.46,1.27h-.22l-.09-.26Zm-.06-.17l-.21-.59-.21,.59h.42Z"/><path class="d" d="M39.22,28.38l-.42,.81v.46h-.21v-.46l-.42-.81h.23l.29,.62,.29-.62h.23Z"/><path class="d" d="M40.11,28.55v.37h.44v.17h-.44v.39h.49v.17h-.7v-1.27h.7v.17h-.49Z"/><path class="d" d="M41.08,29.48h.43v.17h-.64v-1.27h.21v1.1Z"/><path class="d" d="M41.91,28.55v.37h.44v.17h-.44v.39h.49v.17h-.7v-1.27h.7v.17h-.49Z"/><path class="d" d="M42.7,28.68c.06-.1,.14-.18,.24-.23s.21-.08,.33-.08c.14,0,.26,.03,.36,.1,.11,.07,.18,.16,.23,.28h-.25c-.03-.07-.08-.12-.14-.15s-.13-.05-.2-.05c-.08,0-.16,.02-.23,.06-.07,.04-.12,.09-.15,.16-.04,.07-.06,.15-.06,.25s.02,.18,.06,.25c.04,.07,.09,.13,.15,.16,.07,.04,.14,.06,.23,.06,.08,0,.14-.02,.2-.05s.1-.08,.14-.15h.25c-.05,.12-.12,.22-.23,.28-.11,.07-.23,.1-.36,.1-.12,0-.23-.03-.33-.08s-.18-.13-.24-.23c-.06-.1-.09-.21-.09-.33s.03-.24,.09-.33Z"/><path class="d" d="M44.93,28.38v.17h-.34v1.1h-.21v-1.1h-.34v-.17h.89Z"/><path class="d" d="M45.82,29.65l-.29-.51h-.16v.51h-.21v-1.27h.44c.1,0,.18,.02,.25,.05s.12,.08,.15,.14c.03,.06,.05,.12,.05,.19,0,.08-.02,.16-.07,.23-.05,.07-.12,.11-.22,.14l.31,.53h-.25Zm-.45-.67h.23c.08,0,.14-.02,.18-.06,.04-.04,.06-.09,.06-.16s-.02-.12-.06-.15c-.04-.04-.1-.06-.18-.06h-.23v.43Z"/><path class="d" d="M46.59,29.58c-.1-.06-.18-.13-.24-.23-.06-.1-.09-.21-.09-.34s.03-.24,.09-.33c.06-.1,.14-.18,.24-.23s.21-.08,.33-.08,.23,.03,.33,.08c.1,.06,.18,.13,.24,.23,.06,.1,.09,.21,.09,.33s-.03,.24-.09,.34c-.06,.1-.14,.18-.24,.23-.1,.06-.21,.08-.33,.08s-.23-.03-.33-.08Zm.55-.16c.07-.04,.12-.09,.15-.16s.06-.15,.06-.25-.02-.18-.06-.25c-.04-.07-.09-.12-.15-.16-.07-.04-.14-.06-.22-.06s-.16,.02-.23,.06c-.07,.04-.12,.09-.15,.16-.04,.07-.06,.15-.06,.25s.02,.18,.06,.25,.09,.13,.15,.16,.14,.06,.23,.06,.16-.02,.22-.06Z"/><path class="d" d="M48.61,28.38v.17h-.34v1.1h-.21v-1.1h-.34v-.17h.89Z"/><path class="d" d="M49.05,28.55v.37h.44v.17h-.44v.39h.49v.17h-.7v-1.27h.7v.17h-.49Z"/><path class="d" d="M50.48,29.65l-.29-.51h-.16v.51h-.21v-1.27h.44c.1,0,.18,.02,.25,.05s.12,.08,.15,.14c.03,.06,.05,.12,.05,.19,0,.08-.02,.16-.07,.23-.05,.07-.12,.11-.22,.14l.31,.53h-.25Zm-.45-.67h.23c.08,0,.14-.02,.18-.06,.04-.04,.06-.09,.06-.16s-.02-.12-.06-.15c-.04-.04-.1-.06-.18-.06h-.23v.43Z"/><path class="d" d="M51.76,29.39h-.53l-.09,.26h-.22l.46-1.27h.24l.46,1.27h-.22l-.09-.26Zm-.06-.17l-.21-.59-.21,.59h.42Z"/><path class="d" d="M53.13,28.94c-.03,.06-.08,.1-.15,.14s-.15,.05-.26,.05h-.23v.52h-.21v-1.27h.44c.1,0,.18,.02,.25,.05s.12,.08,.15,.14c.03,.06,.05,.12,.05,.19,0,.06-.02,.13-.05,.18Zm-.23-.03s.06-.09,.06-.15c0-.14-.08-.21-.24-.21h-.23v.42h.23c.08,0,.14-.02,.18-.05Z"/><path class="d" d="M53.6,28.38v1.27h-.21v-1.27h.21Z"/><path class="d" d="M54.66,29.39h-.53l-.09,.26h-.22l.46-1.27h.24l.46,1.27h-.22l-.09-.26Zm-.06-.17l-.21-.59-.21,.59h.42Z"/></g></g><g><path class="d" d="M3.29,44.79h0v-.24s.02-.09,.03-.14,.03-.1,.05-.14c.04-.07,.08-.14,.13-.21,.03-.03,.05-.06,.08-.09,.07-.06,.14-.11,.22-.14,.08-.03,.16-.05,.24-.07h.26c.07,0,.12,.05,.16,.11,.05,.07,.06,.14,.08,.22l.09,.39c.02,.08,.03,.15,.04,.23,0,.02,0,.05,.01,.07v.05c-.02,.07-.07,.11-.13,.14-.05,.03-.1,.05-.15,.07-.04,.02-.08,.03-.11,.06-.02,0-.04,.03-.04,.05v.05c0,.06,.02,.11,.04,.16,.03,.08,.07,.16,.11,.23,.07,.12,.14,.24,.23,.35,.04,.06,.09,.12,.14,.17h0s0,0,.01,.02l.09,.09,.05,.05c.07,.06,.14,.12,.21,.17,.05,.04,.11,.08,.16,.12,.04,.03,.09,.05,.14,.06,.03,0,.06,0,.09-.03,.04-.03,.06-.08,.09-.12,.04-.07,.09-.14,.17-.19,.04-.02,.08-.03,.12,0,.08,.02,.15,.05,.23,.08,.09,.04,.18,.07,.27,.11s.17,.08,.25,.12c.05,.03,.1,.05,.14,.09,.03,.03,.05,.06,.05,.1h0v.09s0,.07-.02,.1c-.02,.09-.05,.17-.09,.25-.04,.07-.09,.14-.14,.2-.06,.07-.14,.13-.22,.17-.05,.03-.09,.05-.14,.06-.06,.02-.12,.03-.18,.03h-.28s-.07,0-.1-.02c-.04,0-.07-.02-.11-.03s-.08-.03-.12-.04c-.05-.02-.1-.04-.14-.07l-.15-.09c-.07-.04-.13-.09-.2-.14-.05-.04-.11-.08-.16-.12-.05-.04-.1-.08-.15-.13-.04-.04-.08-.08-.12-.11l-.02-.02c-.06-.06-.12-.12-.18-.19l-.21-.24c-.08-.1-.16-.19-.23-.3-.06-.08-.11-.15-.16-.23-.04-.07-.09-.14-.13-.2-.03-.05-.06-.1-.08-.15-.03-.06-.06-.11-.08-.17-.03-.07-.06-.14-.09-.22-.02-.06-.04-.11-.05-.17,0-.04-.02-.07-.02-.11,0-.03,0-.07,0-.1v-.03h.03Z"/><path class="d" d="M5.57,43.32s.06,.02,.1,.02c.13,.03,.26,.08,.38,.13,.13,.06,.26,.13,.38,.21,.08,.06,.16,.12,.23,.18,.06,.05,.11,.1,.16,.16,.06,.07,.12,.14,.18,.22,.07,.1,.13,.2,.18,.31,.08,.15,.13,.32,.17,.48,.02,.09,.04,.19,.05,.28,0,.04,0,.07,.01,.11v.26s-.02,.06-.05,.07c-.06,.03-.12,.02-.15-.04,0-.02-.01-.03,0-.05v-.2h0v-.12s0-.06-.01-.08c0-.04-.02-.07-.02-.11s-.02-.09-.03-.13c0-.03-.02-.06-.03-.09-.02-.05-.03-.09-.05-.14-.01-.03-.03-.06-.04-.09l-.06-.12c-.05-.1-.11-.19-.18-.27-.04-.05-.09-.11-.13-.16-.07-.07-.14-.14-.22-.2-.06-.05-.12-.09-.18-.13-.21-.14-.44-.23-.69-.29h-.04s-.06-.04-.07-.08c-.01-.05,.02-.11,.07-.12h.04Z"/><path class="d" d="M6.83,45.47h0v.08s0,.03-.01,.04c-.02,.03-.04,.04-.07,.05h-.04c-.05,0-.08-.05-.08-.09v-.24s0-.04-.01-.06c0-.04-.02-.08-.03-.13s-.03-.1-.05-.15c-.02-.05-.04-.1-.06-.14-.05-.1-.11-.19-.19-.28-.05-.06-.11-.12-.18-.17-.07-.05-.13-.1-.21-.14-.05-.03-.09-.05-.14-.07-.07-.03-.14-.05-.21-.08-.02,0-.04,0-.06-.02-.03,0-.05-.04-.06-.07-.02-.07,.05-.13,.12-.12,.25,.06,.47,.16,.67,.32,.06,.05,.12,.11,.18,.17,.09,.1,.17,.2,.23,.32,.07,.13,.13,.27,.16,.41,.02,.07,.03,.14,.04,.21,0,.03,0,.06,.01,.09v.05h0v.02Z"/><path class="d" d="M6.24,45.47s-.04,.07-.08,.08h-.03s-.07-.04-.08-.08v-.14c0-.07-.03-.14-.05-.2-.03-.07-.07-.14-.13-.2-.05-.06-.11-.1-.17-.14s-.12-.06-.19-.08c-.03,0-.06,0-.08-.03-.03-.02-.05-.04-.05-.08,0-.06,.02-.08,.08-.11h.04s.09,.02,.13,.04c.11,.04,.2,.1,.29,.17,.1,.09,.18,.19,.24,.32,.04,.08,.06,.16,.08,.25,0,.03,0,.07,.01,.1v.09h0Z"/><path class="d" d="M4.53,46.9l.02,.02s-.02,0-.02-.02Z"/><path class="d" d="M4.8,46.13h-.01s.02,0,.01,0Z"/></g><g><path d="M11.75,42.61c.44,0,.68,.25,.68,.57,0,.27-.17,.42-.31,.47h0c.21,.08,.35,.24,.35,.51,0,.35-.25,.6-.69,.6s-.75-.21-.76-.68h.47c0,.16,.09,.27,.27,.27,.15,0,.23-.1,.23-.23,0-.19-.11-.26-.37-.26h-.09v-.4h.09c.17,0,.33-.04,.33-.23,0-.14-.08-.22-.21-.22-.16,0-.21,.11-.22,.23h-.48c.02-.41,.29-.64,.71-.64Z"/><path d="M12.98,43.12h-.28v-.45h.79v2.08h-.51v-1.63Z"/><path d="M14.63,42.62c.59,0,.8,.45,.8,1.06s-.21,1.06-.8,1.06-.8-.45-.8-1.06,.21-1.06,.8-1.06Zm0,.46c-.29,0-.32,.28-.32,.6s.03,.6,.32,.6,.32-.27,.32-.6-.03-.6-.32-.6Z"/><path d="M15.67,44.36c.44-.37,.91-.73,.91-1.08,0-.15-.07-.25-.22-.25s-.23,.11-.23,.31h-.47c.01-.5,.34-.72,.72-.72,.47,0,.68,.28,.68,.63,0,.46-.41,.82-.74,1.08h.77v.4h-1.43v-.36Z"/><path d="M18.04,42.61c.44,0,.68,.25,.68,.57,0,.27-.17,.42-.31,.47h0c.21,.08,.35,.24,.35,.51,0,.35-.25,.6-.69,.6s-.75-.21-.76-.68h.47c0,.16,.09,.27,.27,.27,.15,0,.23-.1,.23-.23,0-.19-.11-.26-.37-.26h-.09v-.4h.09c.17,0,.33-.04,.33-.23,0-.14-.08-.22-.21-.22-.16,0-.21,.11-.22,.23h-.48c.02-.41,.29-.64,.71-.64Z"/><path d="M19.85,42.62c.59,0,.8,.45,.8,1.06s-.21,1.06-.8,1.06-.8-.45-.8-1.06,.21-1.06,.8-1.06Zm0,.46c-.29,0-.32,.28-.32,.6s.03,.6,.32,.6,.32-.27,.32-.6-.03-.6-.32-.6Z"/><path d="M22.37,42.66v.43h-.89v.39c.07-.08,.22-.14,.38-.14,.45,0,.63,.35,.63,.68,0,.44-.26,.72-.72,.72s-.74-.26-.76-.62h.48c.02,.11,.1,.21,.26,.21,.19,0,.27-.13,.27-.31s-.09-.29-.27-.29c-.14,0-.22,.07-.24,.17h-.47v-1.24h1.33Z"/><path d="M22.74,44.36c.44-.37,.91-.73,.91-1.08,0-.15-.07-.25-.22-.25s-.23,.11-.23,.31h-.47c.01-.5,.34-.72,.72-.72,.47,0,.68,.28,.68,.63,0,.46-.41,.82-.74,1.08h.77v.4h-1.43v-.36Z"/><path d="M25.86,42.66v.43h-.89v.39c.07-.08,.22-.14,.38-.14,.45,0,.63,.35,.63,.68,0,.44-.26,.72-.72,.72s-.74-.26-.76-.62h.48c.02,.11,.1,.21,.26,.21,.19,0,.27-.13,.27-.31s-.09-.29-.27-.29c-.14,0-.22,.07-.24,.17h-.47v-1.24h1.33Z"/><path d="M27.05,42.62c.59,0,.8,.45,.8,1.06s-.21,1.06-.8,1.06-.8-.45-.8-1.06,.21-1.06,.8-1.06Zm0,.46c-.29,0-.32,.28-.32,.6s.03,.6,.32,.6,.32-.27,.32-.6-.03-.6-.32-.6Z"/><path d="M28.13,43.54h1.26v.41h-1.26v-.41Z"/><path d="M12.39,46.11v.23h-1v.65c.09-.12,.27-.21,.47-.21,.5,0,.66,.36,.66,.68,0,.4-.22,.72-.7,.72-.41,0-.66-.23-.71-.57h.25c.05,.22,.22,.35,.46,.35,.31,0,.45-.21,.45-.49s-.15-.47-.45-.47c-.21,0-.36,.11-.43,.27h-.25v-1.16h1.24Z"/><path d="M12.83,47.97c.54-.44,1.06-.85,1.06-1.27,0-.23-.1-.4-.38-.4s-.41,.19-.42,.45h-.25c.02-.44,.29-.67,.66-.67s.64,.23,.64,.61c0,.51-.55,.95-.92,1.25h.98v.22h-1.37v-.19Z"/><path d="M14.71,46.35h-.27v-.24h.54v2.06h-.26v-1.83Z"/><path d="M16.14,46.08c.57,0,.72,.45,.72,1.04s-.15,1.05-.72,1.05-.72-.45-.72-1.05,.15-1.04,.72-1.04Zm0,.24c-.41,0-.46,.38-.46,.8s.05,.82,.46,.82,.46-.37,.46-.82-.05-.8-.46-.8Z"/><path d="M18.21,47.71h-1.06v-.2l1-1.39h.31v1.36h.29v.23h-.29v.46h-.26v-.46Zm.01-.23v-1.09l-.77,1.09h.77Z"/><path d="M19.34,47.62c.04,.21,.17,.34,.41,.34,.3,0,.47-.21,.46-.81-.08,.17-.29,.27-.51,.27-.38,0-.66-.24-.66-.67,0-.39,.23-.68,.68-.68,.56,0,.72,.39,.72,1.03,0,.69-.16,1.07-.7,1.07-.41,0-.61-.25-.64-.56h.24Zm.84-.86c0-.28-.16-.48-.46-.48-.27,0-.44,.18-.44,.46s.15,.46,.46,.46c.25,0,.44-.16,.44-.44Z"/><path d="M20.85,46.63c0-.3,.23-.55,.68-.55s.68,.25,.68,.55c0,.22-.13,.39-.33,.47,.23,.07,.39,.26,.39,.52,0,.37-.3,.61-.73,.61s-.73-.24-.73-.61c0-.26,.15-.45,.38-.52-.21-.08-.33-.24-.33-.47Zm.2,.98c0,.24,.19,.41,.48,.41s.48-.17,.48-.41c0-.27-.21-.39-.48-.39s-.48,.12-.48,.39Zm.91-.95c0-.24-.17-.36-.43-.36s-.43,.12-.43,.37c0,.21,.17,.35,.43,.35s.43-.14,.43-.36Z"/></g><path class="d" d="M43.76,43.55c0,.72-.53,1.31-1.22,1.42v-1.01h.34l.06-.42h-.4v-.27c0-.11,.06-.23,.24-.23h.18v-.35s-.16-.03-.32-.03c-.33,0-.54,.2-.54,.56v.32h-.37v.42h.37v1.01c-.69-.11-1.22-.7-1.22-1.42,0-.79,.64-1.44,1.44-1.44s1.44,.64,1.44,1.44Z"/><g><path class="d" d="M46.07,42.5c.38,0,.43,0,.58,0,.14,0,.22,.03,.27,.05,.07,.03,.11,.06,.17,.11s.08,.1,.11,.17c.02,.05,.04,.13,.05,.27,0,.15,0,.2,0,.58s0,.43,0,.58c0,.14-.03,.22-.05,.27-.03,.07-.06,.11-.11,.17s-.1,.08-.17,.11c-.05,.02-.13,.04-.27,.05-.15,0-.2,0-.58,0s-.43,0-.58,0c-.14,0-.22-.03-.27-.05-.07-.03-.11-.06-.17-.11-.05-.05-.08-.1-.11-.17-.02-.05-.04-.13-.05-.27,0-.15,0-.2,0-.58s0-.43,0-.58c0-.14,.03-.22,.05-.27,.03-.07,.06-.11,.11-.17s.1-.08,.17-.11c.05-.02,.13-.04,.27-.05,.15,0,.2,0,.58,0m0-.26c-.39,0-.44,0-.59,0-.15,0-.26,.03-.35,.07-.09,.04-.17,.09-.25,.17-.08,.08-.13,.16-.17,.25-.04,.09-.06,.2-.07,.35,0,.15,0,.2,0,.59s0,.44,0,.59c0,.15,.03,.26,.07,.35,.04,.09,.09,.17,.17,.25,.08,.08,.16,.13,.25,.17,.09,.04,.2,.06,.35,.07,.15,0,.2,0,.59,0s.44,0,.59,0c.15,0,.26-.03,.35-.07,.09-.04,.17-.09,.25-.17,.08-.08,.13-.16,.17-.25,.04-.09,.06-.2,.07-.35,0-.15,0-.2,0-.59s0-.44,0-.59c0-.15-.03-.26-.07-.35-.04-.09-.09-.17-.17-.25-.08-.08-.16-.13-.25-.17-.09-.04-.2-.06-.35-.07-.15,0-.2,0-.59,0h0Z"/><path class="d" d="M46.07,42.94c-.41,0-.74,.33-.74,.74s.33,.74,.74,.74,.74-.33,.74-.74-.33-.74-.74-.74Zm0,1.22c-.26,0-.48-.21-.48-.48s.21-.48,.48-.48,.48,.21,.48,.48-.21,.48-.48,.48Z"/><circle class="d" cx="46.83" cy="42.91" r=".17"/></g><g><path class="d" d="M42.13,46.4c.38,0,.68,.29,.68,.74s-.3,.75-.68,.75c-.26,0-.45-.14-.54-.29v.94h-.24v-2.11h.24v.26c.09-.15,.27-.29,.54-.29Zm-.05,.21c-.26,0-.49,.2-.49,.53s.23,.53,.49,.53,.49-.2,.49-.54-.22-.53-.49-.53Z"/><path class="d" d="M43.13,45.93h.24v.71c.09-.15,.27-.23,.47-.23,.32,0,.57,.2,.57,.62v.85h-.24v-.81c0-.29-.16-.44-.4-.44s-.41,.15-.41,.46v.79h-.24v-1.94Z"/><path class="d" d="M45.43,47.89c-.41,0-.71-.29-.71-.74s.32-.74,.72-.74,.72,.29,.72,.74-.33,.74-.74,.74Zm0-.21c.25,0,.49-.17,.49-.53s-.24-.53-.48-.53-.48,.17-.48,.53,.22,.53,.47,.53Z"/><path class="d" d="M47.1,47.89c-.41,0-.71-.29-.71-.74s.29-.74,.71-.74,.69,.29,.69,.69c0,.05,0,.09,0,.14h-1.15c.02,.29,.22,.45,.47,.45,.21,0,.35-.11,.4-.26h.26c-.07,.26-.3,.47-.66,.47Zm-.46-.85h.91c0-.28-.21-.43-.45-.43-.23,0-.43,.15-.45,.43Z"/><path class="d" d="M49.15,47.05c0-.29-.16-.44-.4-.44s-.41,.15-.41,.46v.79h-.24v-1.43h.24v.2c.09-.15,.27-.23,.46-.23,.33,0,.59,.2,.59,.62v.85h-.24v-.81Z"/><path class="d" d="M49.74,46.03c0-.09,.07-.16,.16-.16,.09,0,.16,.07,.16,.16s-.07,.16-.16,.16c-.09,0-.16-.07-.16-.16Zm.04,.4h.24v1.43h-.24v-1.43Z"/><path class="d" d="M50.83,47.33l-.33,.53h-.25l.46-.71-.46-.72h.27l.34,.53,.32-.53h.25l-.46,.71,.46,.72h-.27l-.34-.53Z"/><path class="d" d="M52.3,47.89c-.41,0-.71-.29-.71-.74s.29-.74,.71-.74,.69,.29,.69,.69c0,.05,0,.09,0,.14h-1.15c.02,.29,.22,.45,.47,.45,.21,0,.35-.11,.4-.26h.26c-.07,.26-.3,.47-.66,.47Zm-.46-.85h.91c0-.28-.21-.43-.45-.43-.23,0-.43,.15-.45,.43Z"/><path class="d" d="M53.3,45.93h.24v1.94h-.24v-1.94Z"/><path class="d" d="M54.56,47.89c-.41,0-.71-.29-.71-.74s.29-.74,.71-.74,.69,.29,.69,.69c0,.05,0,.09,0,.14h-1.15c.02,.29,.22,.45,.47,.45,.21,0,.35-.11,.4-.26h.26c-.07,.26-.3,.47-.66,.47Zm-.46-.85h.91c0-.28-.21-.43-.45-.43-.23,0-.43,.15-.45,.43Z"/><path class="d" d="M56.18,46.4c.36,0,.59,.18,.66,.48h-.26c-.05-.17-.19-.28-.41-.28-.26,0-.46,.19-.46,.54s.19,.54,.46,.54c.21,0,.35-.1,.41-.28h.26c-.07,.29-.31,.48-.66,.48-.41,0-.7-.29-.7-.74s.29-.74,.7-.74Z"/><path class="d" d="M57.21,46.62h-.19v-.2h.19v-.36h.24v.36h.37v.2h-.37v.85c0,.14,.05,.19,.2,.19h.18v.2h-.21c-.25,0-.4-.1-.4-.39v-.85Z"/><path class="d" d="M58.35,47.86h-.24v-1.43h.24v.23c.08-.16,.24-.26,.46-.26v.25h-.06c-.23,0-.4,.1-.4,.43v.78Z"/><path class="d" d="M59.71,47.89c-.41,0-.71-.29-.71-.74s.32-.74,.72-.74,.72,.29,.72,.74-.33,.74-.74,.74Zm0-.21c.25,0,.49-.17,.49-.53s-.24-.53-.48-.53-.48,.17-.48,.53,.22,.53,.47,.53Z"/><path class="d" d="M61.38,47.89c-.41,0-.71-.29-.71-.74s.29-.74,.71-.74,.69,.29,.69,.69c0,.05,0,.09,0,.14h-1.15c.02,.29,.22,.45,.47,.45,.21,0,.35-.11,.4-.26h.26c-.07,.26-.3,.47-.66,.47Zm-.46-.85h.91c0-.28-.21-.43-.45-.43-.23,0-.43,.15-.45,.43Z"/><path class="d" d="M62.89,47.89c-.34,0-.57-.18-.59-.44h.25c.01,.14,.14,.24,.34,.24,.19,0,.29-.09,.29-.21,0-.32-.85-.13-.85-.67,0-.22,.21-.4,.53-.4s.53,.17,.54,.45h-.24c-.01-.14-.12-.25-.31-.25-.18,0-.28,.08-.28,.2,0,.34,.83,.15,.84,.67,0,.24-.21,.41-.52,.41Z"/><path class="d" d="M63.8,46.62h-.19v-.2h.19v-.36h.24v.36h.37v.2h-.37v.85c0,.14,.05,.19,.2,.19h.18v.2h-.21c-.25,0-.4-.1-.4-.39v-.85Z"/><path class="d" d="M65.33,47.89c-.41,0-.71-.29-.71-.74s.29-.74,.71-.74,.69,.29,.69,.69c0,.05,0,.09,0,.14h-1.15c.02,.29,.22,.45,.47,.45,.21,0,.35-.11,.4-.26h.26c-.07,.26-.3,.47-.66,.47Zm-.46-.85h.91c0-.28-.21-.43-.45-.43-.23,0-.43,.15-.45,.43Z"/><path class="d" d="M66.38,46.62h-.19v-.2h.19v-.36h.24v.36h.37v.2h-.37v.85c0,.14,.05,.19,.2,.19h.18v.2h-.21c-.25,0-.4-.1-.4-.39v-.85Z"/><path class="d" d="M67.24,46.03c0-.09,.07-.16,.16-.16,.09,0,.16,.07,.16,.16s-.07,.16-.16,.16c-.09,0-.16-.07-.16-.16Zm.04,.4h.24v1.43h-.24v-1.43Z"/><path class="d" d="M68.54,46.4c.36,0,.59,.18,.66,.48h-.26c-.05-.17-.19-.28-.41-.28-.26,0-.46,.19-.46,.54s.19,.54,.46,.54c.21,0,.35-.1,.41-.28h.26c-.07,.29-.31,.48-.66,.48-.41,0-.7-.29-.7-.74s.29-.74,.7-.74Z"/><path class="d" d="M70.11,46.4c.27,0,.45,.14,.53,.29v-.26h.24v1.43h-.24v-.27c-.09,.15-.27,.29-.54,.29-.38,0-.68-.3-.68-.75s.3-.74,.68-.74Zm.05,.21c-.26,0-.48,.19-.48,.53s.22,.54,.48,.54,.49-.2,.49-.53-.23-.53-.49-.53Z"/></g></g></g></svg>